<?xml version="1.0" standalone="no"?>
<!DOCTYPE svg PUBLIC "-//W3C//DTD SVG 1.1//EN" "http://www.w3.org/Graphics/SVG/1.1/DTD/svg11.dtd" >
<svg xmlns="http://www.w3.org/2000/svg">
<metadata>Generated by IcoMoon</metadata>
<defs>
<font id="icomoon" horiz-adv-x="1024">
<font-face units-per-em="1024" ascent="960" descent="-64" />
<missing-glyph horiz-adv-x="1024" />
<glyph unicode="&#x20;" horiz-adv-x="512" d="" />
<glyph unicode="&#xe900;" glyph-name="Shutdown" d="M512 960c-43.481 0-78.769-35.289-78.769-78.769v-393.846c0-43.481 35.289-78.769 78.769-78.769s78.769 35.289 78.769 78.769v393.846c0 43.481-35.289 78.769-78.769 78.769zM230.154 857.846c-11.871-1.543-22.39-6.403-30.853-13.608l0.083 0.069c-117.070-92.372-192-235.918-192-396.308 0-277.996 226.579-504.615 504.615-504.615s504.615 226.625 504.615 504.615c0 160.412-74.876 303.928-192 396.308-10.020 8.069-22.901 12.952-36.923 12.952-32.643 0-59.106-26.463-59.106-59.106 0-18.621 8.611-35.231 22.069-46.065l0.114-0.089c89.803-70.83 147.692-180.449 147.692-304 0-214.16-172.269-386.462-386.462-386.462s-386.462 172.308-386.462 386.462c0 123.573 57.914 233.162 147.692 304 14.407 10.894 23.619 27.999 23.619 47.256 0 32.631-26.452 59.083-59.083 59.083-2.684 0-5.327-0.179-7.916-0.526l0.303 0.033z" />
<glyph unicode="&#xe901;" glyph-name="Signature" d="M259.692 920.615c-55.872 0-114.329-36.122-166.154-103.385s-91.942-168.648-89.846-302.769c0-64.047 20.435-135.099 59.077-194.462 5.7-8.756 15.498-13.968 22.154-22.154-27.109-32.766-73.846-94.769-73.846-94.769-8.544-7.271-13.929-18.034-13.929-30.054 0-21.754 17.635-39.389 39.389-39.389 12.636 0 23.882 5.95 31.089 15.201l0.066 0.088c0 0 47.402 63.397 72.615 93.538 29.053-18.472 62.306-30.769 99.692-30.769 67.282 0 130.438 32.163 184.615 76.308 7.666 6.246 12.326 15.427 19.692 22.154 17.37-12.165 37.79-19.692 60.308-19.692 37.744 0 69.8 18.010 97.231 39.385s50.952 47.129 72.615 72.615c14.521 17.084 25.153 31.262 36.923 45.538-1.421-18.569-2.606-36.817-2.462-54.154 0.075-9.062 0.481-17.208 3.692-28.308 1.606-5.55 3.002-13.16 9.846-20.923s20.814-14.769 33.231-14.769c32.164 0 56.108 18.027 73.846 35.692s31.937 37.992 48 56.615c32.125 37.247 62.97 65.231 107.077 65.231 0.166-0.003 0.361-0.004 0.557-0.004 21.754 0 39.389 17.635 39.389 39.389s-17.635 39.389-39.389 39.389c-0.196 0-0.391-0.001-0.586-0.004h0.029c-77.986 0-130.341-50.785-166.154-92.308-11.105-12.876-19.452-21.661-28.308-32 0.106 1.418-0.106 2.266 0 3.692 1.501 20.018 3.927 39.534 2.462 59.077-0.733 9.771-1.83 19.944-7.385 32s-23.959 29.538-44.308 29.538c-21.333 0-33.357-9.365-43.077-17.231s-18.218-17.048-27.077-27.077c-17.718-20.058-36.433-43.948-56.615-67.692s-41.585-47.221-61.538-62.769c-19.954-15.549-36.513-22.154-48-22.154-2.608 0-3.923 4.466-6.154 4.923 20.735 24.938 46.285 46.336 62.769 72.615 35.972 57.346 60.957 114.091 68.923 163.692 3.983 24.801 5.38 48.932-6.154 72.615s-41.737 40.615-68.923 40.615c-52.95 0-97.488-34.232-128-80s-49.231-105.791-49.231-172.308c0-34.535 10.822-63.559 22.154-92.308-9.368-9.056-16.142-21.632-25.846-29.538-45.515-37.086-93.128-59.077-134.154-59.077-17.838 0-33.741 7.782-49.231 16 18.422 24.499 19.821 21.239 39.385 50.462 80.662 120.489 163.692 274.54 163.692 422.154 0 17.536-1.193 49.212-19.692 81.231s-59.8 60.308-114.462 60.308zM259.692 841.846c31.985 0 38.438-8.634 45.538-20.923s9.846-31.812 9.846-41.846c0-116.263-74.508-264.243-151.385-379.077-15.722-23.485-15.712-20.259-30.769-40.615-1.079 1.579-2.635 2.068-3.692 3.692-29.297 45.007-46.769 105.155-46.769 151.385 0.003 0.183 0.005 0.399 0.005 0.615s-0.002 0.432-0.005 0.648v-0.033c-1.843 117.941 33.117 199.447 73.846 252.308s92.303 73.846 103.385 73.846zM552.615 643.692c0.541-2.907 2.056-8.121 0-20.923-5.080-31.63-25.879-83.192-57.846-134.154-8.786-14.006-22.994-24.402-33.231-38.154-0.937 8.176-4.923 11.959-4.923 20.923 0 51.638 15.005 98.199 35.692 129.231 19.79 29.685 42.65 41.952 60.308 43.077zM0 54.154v-78.769h1024v78.769h-1024z" />
<glyph unicode="&#xe902;" glyph-name="Sim-Card-Chip" d="M228.923 881.231c-124.617 0-228.923-104.306-228.923-228.923v-408.615c0-124.617 104.306-228.923 228.923-228.923h566.154c124.617 0 228.923 104.306 228.923 228.923v408.615c0 124.617-104.306 228.923-228.923 228.923h-566.154zM228.923 802.462h566.154c80.183 0 150.154-69.971 150.154-150.154v-46.769h-236.308c-21.841 0-39.385 17.544-39.385 39.385s17.544 39.385 39.385 39.385c0.166-0.003 0.361-0.004 0.557-0.004 21.754 0 39.389 17.635 39.389 39.389s-17.635 39.389-39.389 39.389c-0.196 0-0.391-0.001-0.586-0.004h0.029c-64.806 0-118.154-53.348-118.154-118.154 0-50.899 33.247-94.302 78.769-110.769v-195.692c-47.19-32.042-78.769-85.873-78.769-146.462 0-36.353 11.544-70.148 30.769-98.462h-219.077c19.226 28.314 30.769 62.109 30.769 98.462 0 60.588-31.58 114.419-78.769 146.462v195.692c45.522 16.467 78.769 59.87 78.769 110.769 0 64.806-53.348 118.154-118.154 118.154h-78.769c-0.551 0.028-1.197 0.043-1.846 0.043s-1.295-0.016-1.937-0.047l0.090 0.003c-0.551 0.028-1.197 0.043-1.846 0.043s-1.295-0.016-1.937-0.047l0.091 0.003c-20.2-1.95-35.865-18.838-35.865-39.385 0-21.847 17.71-39.557 39.557-39.557 1.3 0 2.586 0.063 3.853 0.185l-0.161-0.013h78.769c21.841 0 39.385-17.544 39.385-39.385s-17.544-39.385-39.385-39.385h-236.308v46.769c0 80.183 69.971 150.154 150.154 150.154zM78.769 526.769h196.923v-157.538h-196.923v157.538zM748.308 526.769h196.923v-157.538h-196.923v157.538zM78.769 290.462h177.231c52.72 0 98.462-45.741 98.462-98.462s-45.741-98.462-98.462-98.462h-27.077c-80.183 0-150.154 69.971-150.154 150.154v46.769zM768 290.462h177.231v-46.769c0-80.183-69.971-150.154-150.154-150.154h-27.077c-52.72 0-98.462 45.741-98.462 98.462s45.741 98.462 98.462 98.462z" />
<glyph unicode="&#xe903;" glyph-name="Skip-To-Start" d="M275.692 763.077c-21.701 0-39.385-17.684-39.385-39.385v-551.385c0-21.701 17.684-39.385 39.385-39.385h118.154c21.701 0 39.385 17.684 39.385 39.385v192l279.385-221.538c15.872-7.995 35.338-6.715 50.462 2.462 15.202 9.137 24.615 25.59 24.615 43.077v519.385c0 17.447-9.413 33.9-24.615 43.077-8.192 4.962-17.664 7.385-27.077 7.385-7.916 0-16.098-1.3-23.385-4.923l-279.385-221.538v192c0 21.701-17.684 39.385-39.385 39.385h-118.154z" />
<glyph unicode="&#xe904;" glyph-name="Snow" d="M610.462 960c-90.222 0-164.936-50.935-210.462-121.846-8.567 1.176-16.596 3.692-25.846 3.692-98.553 0-177.243-68.332-203.077-158.769-94.44-3.456-171.077-80.761-171.077-176 0-97.415 79.815-177.231 177.231-177.231h630.154c119.161 0 216.615 97.454 216.615 216.615 0 101.425-71.742 183.63-166.154 206.769-23.552 117.015-123.718 206.769-247.385 206.769zM610.462 881.231c93.449 0 168.541-71.208 176-162.462l3.692-33.231 32-2.462c69.442-7.415 123.077-65.122 123.077-136.615 0-76.58-61.266-137.846-137.846-137.846h-630.154c-54.846 0-98.462 43.616-98.462 98.462s43.616 98.462 98.462 98.462c3.574 0 7.861-0.15 14.769-1.231l41.846-7.385 3.692 41.846c6.957 70.003 64.775 124.308 136.615 124.308 10.263 0 20.88-1.045 32-3.692l30.769-7.385 13.538 28.308c28.521 59.685 89.152 100.923 160 100.923zM755.692 296.615c-8.784-2.397-15.134-10.305-15.134-19.696 0-6.467 3.011-12.23 7.708-15.964l0.042-0.032 48-48h-67.692c-0.368 0.024-0.798 0.037-1.231 0.037s-0.863-0.014-1.289-0.040l0.058 0.003c-11.034-0.669-19.728-9.781-19.728-20.923 0-11.575 9.384-20.959 20.959-20.959 0.433 0 0.863 0.013 1.289 0.039l-0.059-0.003h67.692l-48-48c-3.781-3.78-6.119-9.002-6.119-14.771 0-11.535 9.351-20.887 20.887-20.887 5.769 0 10.991 2.339 14.771 6.119l48 48v-67.692c0-11.555 9.368-20.923 20.923-20.923s20.923 9.368 20.923 20.923v0 67.692l48-48c3.78-3.781 9.002-6.119 14.771-6.119 11.535 0 20.887 9.351 20.887 20.887 0 5.769-2.339 10.991-6.119 14.771l-48 48h67.692c11.555 0 20.923 9.368 20.923 20.923s-9.368 20.923-20.923 20.923v0h-67.692l48 48c4.286 3.756 6.977 9.241 6.977 15.354 0 11.258-9.126 20.384-20.384 20.384-0.479 0-0.955-0.017-1.426-0.049l0.064 0.004c-0.052 0-0.113 0.001-0.174 0.001-5.72 0-10.889-2.356-14.591-6.15l-48.004-48.004v28.308c0.009 0.228 0.014 0.495 0.014 0.764 0 11.258-9.126 20.384-20.384 20.384-1.064 0-2.109-0.082-3.129-0.239l0.114 0.014c-0.368 0.024-0.798 0.037-1.231 0.037s-0.863-0.014-1.289-0.040l0.058 0.003c-9.231-2.073-16.025-10.199-16.025-19.912 0-0.356 0.009-0.709 0.027-1.060l-0.002 0.049v-28.308l-48 48c-3.718 3.889-8.948 6.306-14.742 6.306-0.877 0-1.742-0.055-2.59-0.163l0.101 0.010c-0.368 0.024-0.798 0.037-1.231 0.037s-0.863-0.014-1.289-0.040l0.058 0.003c-0.368 0.024-0.798 0.037-1.231 0.037s-0.863-0.014-1.289-0.040l0.058 0.003zM209.231 291.692c-7.995-2.877-13.609-10.395-13.609-19.225 0-0.598 0.026-1.189 0.076-1.774l-0.005 0.076v-67.692l-48 48c-3.718 3.889-8.948 6.306-14.742 6.306-0.877 0-1.742-0.055-2.59-0.163l0.101 0.010c-0.368 0.024-0.798 0.037-1.231 0.037s-0.863-0.014-1.289-0.040l0.058 0.003c-9.749-1.644-17.083-10.023-17.083-20.115 0-6.234 2.798-11.814 7.208-15.553l0.030-0.024 48-48h-67.692c-0.368 0.024-0.798 0.037-1.231 0.037s-0.863-0.014-1.289-0.040l0.058 0.003c-11.034-0.669-19.728-9.781-19.728-20.923 0-11.575 9.384-20.959 20.959-20.959 0.433 0 0.863 0.013 1.289 0.039l-0.059-0.003h67.692l-48-48c-3.781-3.78-6.119-9.002-6.119-14.771 0-11.535 9.351-20.887 20.887-20.887 5.769 0 10.991 2.339 14.771 6.119l48 48v-67.692c0-11.555 9.368-20.923 20.923-20.923s20.923 9.368 20.923 20.923v0 67.692l48-48c3.78-3.781 9.002-6.119 14.771-6.119 11.535 0 20.887 9.351 20.887 20.887 0 5.769-2.339 10.991-6.119 14.771l-48 48h67.692c11.555 0 20.923 9.368 20.923 20.923s-9.368 20.923-20.923 20.923v0h-67.692l48 48c4.286 3.756 6.977 9.241 6.977 15.354 0 11.258-9.126 20.384-20.384 20.384-0.479 0-0.955-0.017-1.426-0.049l0.064 0.004c-0.052 0-0.113 0.001-0.174 0.001-5.72 0-10.889-2.356-14.591-6.15l-48.004-48.004v67.692c0.009 0.228 0.014 0.495 0.014 0.764 0 11.258-9.126 20.384-20.384 20.384-1.064 0-2.109-0.082-3.129-0.239l0.114 0.014c-0.368 0.024-0.798 0.037-1.231 0.037s-0.863-0.014-1.289-0.040l0.058 0.003c-0.368 0.024-0.798 0.037-1.231 0.037s-0.863-0.014-1.289-0.040l0.058 0.003zM524.308 212.923c-7.995-2.877-13.609-10.395-13.609-19.225 0-0.598 0.026-1.189 0.076-1.774l-0.005 0.076v-67.692l-48 48c-3.718 3.889-8.948 6.306-14.742 6.306-0.877 0-1.742-0.055-2.59-0.163l0.101 0.010c-10.767-0.609-19.268-9.488-19.268-20.353 0-6.105 2.684-11.584 6.937-15.32l0.023-0.020 48-48h-67.692c-0.368 0.024-0.798 0.037-1.231 0.037s-0.863-0.014-1.289-0.040l0.058 0.003c-11.034-0.669-19.728-9.781-19.728-20.923 0-11.575 9.384-20.959 20.959-20.959 0.433 0 0.863 0.013 1.289 0.039l-0.059-0.003h67.692l-48-48c-3.781-3.78-6.119-9.002-6.119-14.771 0-11.535 9.351-20.887 20.887-20.887 5.769 0 10.991 2.339 14.771 6.119l48 48v-67.692c0-11.555 9.368-20.923 20.923-20.923s20.923 9.368 20.923 20.923v0 67.692l48-48c3.78-3.781 9.002-6.119 14.771-6.119 11.535 0 20.887 9.351 20.887 20.887 0 5.769-2.339 10.991-6.119 14.771l-48 48h67.692c11.555 0 20.923 9.368 20.923 20.923s-9.368 20.923-20.923 20.923v0h-67.692l48 48c4.286 3.756 6.977 9.241 6.977 15.354 0 11.258-9.126 20.384-20.384 20.384-0.479 0-0.955-0.017-1.426-0.049l0.064 0.004c-0.052 0-0.113 0.001-0.174 0.001-5.72 0-10.889-2.356-14.591-6.15l-48.004-48.004v67.692c0.009 0.228 0.014 0.495 0.014 0.764 0 11.258-9.126 20.384-20.384 20.384-1.064 0-2.109-0.082-3.129-0.239l0.114 0.014c-0.368 0.024-0.798 0.037-1.231 0.037s-0.863-0.014-1.289-0.040l0.058 0.003c-0.368 0.024-0.798 0.037-1.231 0.037s-0.863-0.014-1.289-0.040l0.058 0.003z" />
<glyph unicode="&#xe905;" glyph-name="Speaker" d="M473.846 918.154c-12.662-0.079-26.624-5.716-39.385-18.462l-225.231-254.769h-169.846c-21.701 0-39.385-17.684-39.385-39.385v-315.077c0-21.701 17.684-39.385 39.385-39.385h169.846l224-253.538c39.385-39.385 78.769-19.22 78.769 34.462v838.154c0 31.163-17.050 48.131-38.154 48zM759.385 839.385c-18.661-3.332-32.644-19.436-32.644-38.807 0-16.206 9.787-30.126 23.773-36.172l0.255-0.098c115.659-58.361 194.462-177.509 194.462-316.308s-78.802-257.947-194.462-316.308c-15.593-5.482-26.57-20.081-26.57-37.244 0-21.754 17.635-39.389 39.389-39.389 8.056 0 15.548 2.419 21.788 6.57l-0.145-0.091c141.444 71.372 238.769 217.588 238.769 386.462s-97.326 315.090-238.769 386.462c-5.544 3.164-12.184 5.030-19.259 5.030-1.019 0-2.028-0.039-3.027-0.115l0.133 0.008c-0.551 0.028-1.197 0.043-1.846 0.043s-1.295-0.016-1.937-0.047l0.090 0.003zM665.846 686.769c-20.474-1.551-36.499-18.546-36.499-39.282 0-14.827 8.193-27.741 20.298-34.461l0.201-0.103c60.787-37.751 98.462-97.544 98.462-164.923 0-67.808-38.265-128.451-99.692-166.154-12.618-6.734-21.060-19.814-21.060-34.864 0-21.754 17.635-39.389 39.389-39.389 8.861 0 17.039 2.926 23.619 7.864l-0.102-0.073c81.539 50.046 136.615 135.086 136.615 232.615 0 96.933-54.624 182.46-135.385 232.615-5.989 3.868-13.306 6.166-21.16 6.166-0.349 0-0.698-0.005-1.045-0.014l0.051 0.001c-0.551 0.028-1.197 0.043-1.846 0.043s-1.295-0.016-1.937-0.047l0.090 0.003z" />
<glyph unicode="&#xe906;" glyph-name="Speech-Bubble" d="M512 952.615c-278.686 0-504.615-199.463-504.615-445.538 0-125.114 58.571-237.84 152.615-318.769-20.514-118.52-153.068-166.754-144-199.385 118.504-49.006 353.31 64.8 388.923 82.462 34.413-6.545 70.447-9.846 107.077-9.846 278.686 0 504.615 199.463 504.615 445.538s-225.93 445.538-504.615 445.538z" />
<glyph unicode="&#xe907;" glyph-name="Stack-of-Photos" d="M39.385 960c-21.701 0-39.385-17.684-39.385-39.385v-630.154c0-21.701 17.684-39.385 39.385-39.385h630.154c21.701 0 39.385 17.684 39.385 39.385v630.154c0 21.701-17.684 39.385-39.385 39.385h-630.154zM78.769 881.231h551.385v-472.615h-551.385v472.615zM748.308 845.538v-80l71.385-12.308-71.385-413.538v-49.231c0-43.481-35.328-78.769-78.769-78.769h-417.231l499.692-86.154c21.425-3.702 41.876 10.614 45.538 32l105.846 621.538c3.702 21.386-10.575 41.915-32 45.538l-123.077 20.923zM354.462 804.923c-45.332 0-83.692-31.163-83.692-89.846 0-38.361 17.103-76.898 40.615-100.923 9.216-24.025-6.459-33.162-9.846-34.462-47.498-17.172-103.385-49.044-103.385-80v-50.462h312.615v50.462c0.039 31.902-55.985 63.537-105.846 80-2.284 0.748-16.443 7.129-7.385 34.462 23.434 24.064 41.846 62.759 41.846 100.923 0 58.644-39.591 89.846-84.923 89.846zM921.846 648.615l-13.538-77.538 28.308-6.154-108.308-460.308-16 3.692c-14.257-13.824-33.004-22.154-54.154-22.154-4.372 0-9.049 0.482-13.538 1.231l-545.231 93.538-11.077-46.769c-4.844-21.15 8.389-43.077 29.538-48l612.923-144c21.15-5.002 42.998 8.468 48 29.538l142.769 612.923c5.002 21.11-7.119 42.998-28.308 48l-71.385 16z" />
<glyph unicode="&#xe908;" glyph-name="Stack" d="M196.923 960c-65.221 0-93.538-56.005-118.154-118.154l-76.308-206.769c11.185 6.144 23.296 9.846 36.923 9.846h945.231c13.627 0 25.738-3.702 36.923-9.846l-76.308 206.769c-27.687 60.298-52.933 118.154-118.154 118.154h-630.154zM39.385 605.538c-21.701 0-39.385-17.684-39.385-39.385v-118.154c0-21.701 17.684-39.385 39.385-39.385h945.231c21.701 0 39.385 17.684 39.385 39.385v118.154c0 21.701-17.684 39.385-39.385 39.385h-945.231zM886.154 566.154c32.61 0 59.077-26.466 59.077-59.077s-26.466-59.077-59.077-59.077c-32.61 0-59.077 26.466-59.077 59.077s26.466 59.077 59.077 59.077zM39.385 369.231c-21.701 0-39.385-17.684-39.385-39.385v-118.154c0-21.701 17.684-39.385 39.385-39.385h945.231c21.701 0 39.385 17.684 39.385 39.385v118.154c0 21.701-17.684 39.385-39.385 39.385h-945.231zM886.154 329.846c32.61 0 59.077-26.466 59.077-59.077s-26.466-59.077-59.077-59.077c-32.61 0-59.077 26.466-59.077 59.077s26.466 59.077 59.077 59.077zM39.385 132.923c-21.701 0-39.385-17.684-39.385-39.385v-118.154c0-21.701 17.684-39.385 39.385-39.385h945.231c21.701 0 39.385 17.684 39.385 39.385v118.154c0 21.701-17.684 39.385-39.385 39.385h-945.231zM886.154 93.538c32.61 0 59.077-26.466 59.077-59.077s-26.466-59.077-59.077-59.077c-32.61 0-59.077 26.466-59.077 59.077s26.466 59.077 59.077 59.077z" />
<glyph unicode="&#xe909;" glyph-name="Star" d="M997.455 560.758c-4.608 14.218-16.975 24.615-31.783 26.782l-289.083 41.984-129.3 261.947c-13.273 26.9-57.344 26.9-70.617 0l-129.3-261.947-289.083-41.984c-14.809-2.166-27.136-12.524-31.783-26.782-4.608-14.297-0.788-29.932 9.964-40.369l209.211-203.934-49.388-287.902c-2.521-14.769 3.545-29.735 15.636-38.518 12.17-8.862 28.239-10.004 41.511-2.993l258.56 135.956 258.521-135.916c5.75-3.033 12.091-4.529 18.353-4.529 8.153 0 16.266 2.521 23.158 7.522 12.13 8.783 18.196 23.749 15.636 38.518l-49.388 287.902 209.211 203.934c10.752 10.437 14.572 26.033 9.964 40.33z" />
<glyph unicode="&#xe90a;" glyph-name="Statistics" d="M508.308 961.231c-1.938-0.356-3.592-0.783-5.202-1.31l0.279 0.079c-17.746-4.076-30.781-19.734-30.781-38.436 0-0.333 0.004-0.666 0.012-0.997l-0.001 0.049v-39.385h-354.462c-65.221 0-118.154-52.894-118.154-118.154v-512c0-65.221 52.933-118.154 118.154-118.154h354.462v-14.769l-214.154-107.077c-13.365-6.56-22.403-20.071-22.403-35.692 0-21.889 17.745-39.634 39.634-39.634 6.267 0 12.195 1.455 17.464 4.045l-0.233-0.103 179.692 89.846v-14.769c-0.003-0.166-0.004-0.361-0.004-0.557 0-21.754 17.635-39.389 39.389-39.389s39.389 17.635 39.389 39.389c0 0.196-0.001 0.391-0.004 0.586v-0.029 14.769l179.692-89.846c5.036-2.487 10.963-3.942 17.231-3.942 21.889 0 39.634 17.745 39.634 39.634 0 15.622-9.038 29.133-22.17 35.589l-0.233 0.103-214.154 107.077v14.769h354.462c65.221 0 118.154 52.933 118.154 118.154v512c0 65.26-52.933 118.154-118.154 118.154h-354.462v39.385c0.016 0.418 0.025 0.909 0.025 1.402 0 21.754-17.635 39.389-39.389 39.389-1.308 0-2.6-0.064-3.875-0.188l0.162 0.013zM78.769 763.077h866.462v-512h-866.462v512zM822.154 723.692c-9.18-1.019-17.266-5.057-23.39-11.082l-129.226-129.226-89.846 89.846c-7.161 7.339-17.15 11.891-28.202 11.891-14.83 0-27.746-8.196-34.465-20.305l-0.103-0.202-116.923-204.308-48 120.615c-5.758 15.068-20.095 25.576-36.887 25.576-11.124 0-21.17-4.611-28.333-12.026l-118.165-118.165c-7.246-7.245-11.727-17.254-11.727-28.309 0-22.11 17.923-40.033 40.033-40.033 11.056 0 21.065 4.482 28.309 11.727l75.077 75.077 56.615-140.308c5.801-14.982 20.095-25.413 36.826-25.413 14.823 0 27.734 8.188 34.456 20.289l0.103 0.201 131.692 230.154 81.231-81.231c7.17-7.404 17.202-12 28.308-12s21.137 4.596 28.298 11.989l0.010 0.011 157.538 157.538c7.728 7.211 12.545 17.455 12.545 28.825 0 21.754-17.635 39.389-39.389 39.389-2.256 0-4.467-0.19-6.619-0.554l0.232 0.032z" />
<glyph unicode="&#xe90b;" glyph-name="Stop" d="M827.077 172.308c0-21.701-17.684-39.385-39.385-39.385h-551.385c-21.701 0-39.385 17.684-39.385 39.385v551.385c0 21.701 17.684 39.385 39.385 39.385h551.385c21.701 0 39.385-17.684 39.385-39.385v-551.385z" />
<glyph unicode="&#xe90c;" glyph-name="Survey" d="M347.077 960c-18.351-3.595-32.006-19.548-32.006-38.691 0-0.244 0.002-0.488 0.007-0.731l-0.001 0.037v-39.385h-141.538c-31.508 0-55.385-23.877-55.385-55.385v-830.769c0-35.446 23.877-59.077 55.385-59.077h673.231c31.508 0 55.385 23.877 55.385 55.385v834.462c3.938 31.508-20.185 55.385-51.692 55.385h-141.538v39.385c-0.002 21.751-17.634 39.382-39.384 39.385h-315.077c-0.551 0.028-1.197 0.043-1.846 0.043s-1.295-0.016-1.937-0.047l0.090 0.003c-0.551 0.028-1.197 0.043-1.846 0.043s-1.295-0.016-1.937-0.047l0.090 0.003zM393.846 881.231h236.308v-78.769h-236.308v78.769zM196.923 802.462h118.154v-39.385c0.002-21.751 17.634-39.382 39.384-39.385h315.077c21.751 0.002 39.382 17.634 39.385 39.384v0 39.385h118.154v-787.692h-630.154v787.692zM275.692 605.538v-157.538h157.538v157.538h-157.538zM315.077 566.154h78.769v-78.769h-78.769v78.769zM512 566.154v-78.769h236.308v78.769h-236.308zM275.692 369.231v-157.538h157.538v157.538h-157.538zM512 329.846v-78.769h236.308v78.769h-236.308z" />
<glyph unicode="&#xe90d;" glyph-name="Swiss-Army-Knife" d="M492.308 960c-97.871 0-177.231-79.36-177.231-177.231v-669.538c0-97.871 79.36-177.231 177.231-177.231s177.231 79.36 177.231 177.231v669.538c0 97.871-79.36 177.231-177.231 177.231zM2.462 944c-6.498-41.433-3.564-143.202 32-192l241.231-334.769v248.615l-44.308 6.154 8.615 52.923-52.923 8.615 8.615 51.692-52.923 8.615 8.615 52.923-52.923 7.385 8.615 52.923-52.923 8.615c-15.439 3.584-41.925 22.991-51.692 28.308zM492.308 841.846c32.61 0 59.077-26.466 59.077-59.077s-26.466-59.077-59.077-59.077c-32.61 0-59.077 26.466-59.077 59.077s26.466 59.077 59.077 59.077zM708.923 802.462v-257.231c0 0 70.991-85.918 115.692-140.308 39.621-48.207 118.774-108.022 195.692-82.462-32.729 76.721-63.015 134.42-88.615 192-81.329 112.089-222.769 288-222.769 288zM39.385 487.385c-29.42-2.836-39.385-31.724-39.385-86.154 0-146.511 275.692-307.692 275.692-307.692v112c0 0-78.769 28.613-78.769 120.615 0 51.909-12.17 84.588-39.385 107.077-8.625 7.129-35.476 17.241-48 8.615 10.673-18.786 41.118-85.957 24.615-96-22.686-13.903-101.386 12.593-94.769 141.538zM472.615 172.308h39.385v-39.385h39.385v-39.385h-39.385v-39.385h-39.385v39.385h-39.385v39.385h39.385v39.385z" />
<glyph unicode="&#xe90e;" glyph-name="Switch-Camera" d="M832 763.077h-75.815l-51.358 90.624c-8.901 15.714-28.199 27.53-54.981 27.53h-275.692c-27.924 0-46.041-11.815-54.981-27.53l-51.358-90.624h-75.815c-106.063 0-192-85.937-192-192v-324.923c0-106.063 85.937-192 192-192h640c106.063 0 192 85.937 192 192v324.923c0 106.063-85.937 192-192 192zM512 132.923c-152.261 0-275.692 123.431-275.692 275.692h-78.769l118.154 157.538 118.154-157.538h-78.769c0-108.583 88.34-196.923 196.923-196.923 49.94 0 95.114 19.298 129.851 50.058l47.813-63.764c-48.010-40.527-109.922-65.063-177.664-65.063zM748.308 251.077l-118.154 157.538h78.769c0 108.583-88.34 196.923-196.923 196.923-49.94 0-95.114-19.298-129.851-50.058l-47.813 63.764c48.010 40.527 109.922 65.063 177.664 65.063 152.261 0 275.692-123.431 275.692-275.692h78.769l-118.154-157.538z" />
<glyph unicode="&#xe90f;" glyph-name="Timer" d="M512 960c-43.525 0-78.769-35.244-78.769-78.769s35.244-78.769 78.769-78.769c43.525 0 78.769 35.244 78.769 78.769s-35.244 78.769-78.769 78.769zM715.077 910.769c-11.564-0.61-24.99-6.262-34.462-22.154-27.097-45.45 15.429-72.95 28.308-80 127.764-69.947 215.385-204.928 215.385-360.615 0-227.249-185.058-412.308-412.308-412.308s-412.308 185.058-412.308 412.308c0 52.224 10.427 101.77 28.308 147.692 2.324 5.947 24.261 46.198-19.692 73.846-30.090 18.905-59.323-2.53-65.231-16-27.648-62.858-43.077-132.48-43.077-205.538 0-282.782 229.218-512 512-512s512 229.218 512 512c0 201.374-116.421 375.66-285.538 459.077-1.772 0.886-11.82 4.303-23.385 3.692zM132.923 828.308c-12.378-12.378 304.319-412.59 313.846-424.615 0.331-0.492 0.889-0.747 1.231-1.231 0.087-0.11 3.692-4.923 3.692-4.923 14.417-17.316 36.019-28.286 60.308-28.308 43.481 0 78.69 35.367 78.769 78.769 0.044 24.333-11.033 45.857-28.308 60.308 0 0-416.975 332.564-429.538 320z" />
<glyph unicode="&#xe910;" glyph-name="Today" d="M275.692 960c-21.701 0-39.385-17.684-39.385-39.385v-118.154c0-21.701 17.684-39.385 39.385-39.385s39.385 17.684 39.385 39.385v118.154c0 21.701-17.684 39.385-39.385 39.385zM748.308 960c-21.701 0-39.385-17.684-39.385-39.385v-118.154c0-21.701 17.684-39.385 39.385-39.385s39.385 17.684 39.385 39.385v118.154c0 21.701-17.684 39.385-39.385 39.385zM118.154 881.231c-65.221 0-118.154-52.933-118.154-118.154v-708.923c0-65.221 52.933-118.154 118.154-118.154h787.692c65.221 0 118.154 52.933 118.154 118.154v708.923c0 65.221-52.933 118.154-118.154 118.154h-78.769v-78.769c0-43.481-35.289-78.769-78.769-78.769s-78.769 35.289-78.769 78.769v78.769h-315.077v-78.769c0-43.481-35.289-78.769-78.769-78.769s-78.769 35.289-78.769 78.769v78.769h-78.769zM78.769 605.538h866.462v-551.385c0-21.701-17.684-39.385-39.385-39.385h-787.692c-21.701 0-39.385 17.684-39.385 39.385v551.385zM665.846 520.615c-6.016-1.152-11.087-4.45-14.769-9.846l-193.231-285.538-89.846 88.615c-9.295 9.216-23.897 9.216-33.231 0l-34.462-33.231c-9.334-9.295-9.334-25.127 0-34.462l136.615-136.615c7.68-7.601 19.899-13.538 30.769-13.538s22.528 6.951 29.538 17.231l232.615 343.385c7.444 10.87 4.716 25.826-6.154 33.231l-39.385 27.077c-5.455 3.702-12.446 4.844-18.462 3.692zM35524.923-56896v-78.769h1024v78.769h-1024zM35682.462-57092.923v-78.769h708.923v78.769h-708.923zM35524.923-57289.846v-78.769h1024v78.769h-1024zM35682.462-57486.769v-78.769h708.923v78.769h-708.923zM35524.923-57683.692v-78.769h1024v78.769h-1024z" />
<glyph unicode="&#xe911;" glyph-name="Todo-List" d="M310.154 960c-10.55-1.434-19.617-6.863-25.782-14.685l-0.064-0.084-134.154-168.615-88.615 59.077c-6.226 4.203-13.899 6.71-22.157 6.71-22.057 0-39.938-17.881-39.938-39.938 0-13.802 7.001-25.968 17.645-33.142l0.142-0.090 118.154-78.769c6.135-4.134 13.692-6.599 21.825-6.599 12.603 0 23.823 5.919 31.033 15.129l0.065 0.086 157.538 196.923c5.551 6.737 8.917 15.455 8.917 24.959 0 21.754-17.635 39.389-39.389 39.389-1.841 0-3.653-0.126-5.426-0.371l0.206 0.023zM472.615 841.846v-78.769h551.385v78.769h-551.385zM310.154 605.538c-10.55-1.434-19.617-6.863-25.782-14.685l-0.064-0.084-134.154-168.615-88.615 59.077c-6.226 4.203-13.899 6.71-22.157 6.71-22.057 0-39.938-17.881-39.938-39.938 0-13.802 7.001-25.968 17.645-33.142l0.142-0.090 118.154-78.769c6.135-4.134 13.692-6.599 21.825-6.599 12.603 0 23.823 5.919 31.033 15.129l0.065 0.086 157.538 196.923c5.551 6.737 8.917 15.455 8.917 24.959 0 21.754-17.635 39.389-39.389 39.389-1.841 0-3.653-0.126-5.426-0.371l0.206 0.023zM472.615 487.385v-78.769h551.385v78.769h-551.385zM310.154 251.077c-10.55-1.434-19.617-6.863-25.782-14.685l-0.064-0.084-134.154-168.615-88.615 59.077c-6.226 4.203-13.899 6.71-22.157 6.71-22.057 0-39.938-17.881-39.938-39.938 0-13.802 7.001-25.968 17.645-33.142l0.142-0.090 118.154-78.769c6.135-4.134 13.692-6.599 21.825-6.599 12.603 0 23.823 5.919 31.033 15.129l0.065 0.086 157.538 196.923c5.551 6.737 8.917 15.455 8.917 24.959 0 21.754-17.635 39.389-39.389 39.389-1.841 0-3.653-0.126-5.426-0.371l0.206 0.023zM472.615 132.923v-78.769h551.385v78.769h-551.385z" />
<glyph unicode="&#xe912;" glyph-name="Unlock-2" d="M512 960c-130.907 0-236.308-105.401-236.308-236.308v-157.538c-86.646 0-157.538-70.892-157.538-157.538v-315.077c0-86.646 70.892-157.538 157.538-157.538h472.615c86.646 0 157.538 70.892 157.538 157.538v315.077c0 86.646-70.892 157.538-157.538 157.538h-393.846v157.538c0 89.647 67.892 157.538 157.538 157.538s157.538-67.892 157.538-157.538v-39.385h78.769v39.385c0 130.907-105.401 236.308-236.308 236.308zM512 369.231c43.323 0 78.769-35.446 78.769-78.769 0-27.569-15.754-54.646-39.385-66.462v-91.077c0-23.631-15.754-39.385-39.385-39.385s-39.385 15.754-39.385 39.385v91.077c-23.631 11.815-39.385 38.892-39.385 66.462 0 43.323 35.446 78.769 78.769 78.769z" />
<glyph unicode="&#xe913;" glyph-name="Unlock" d="M275.692 960c-87.048 0-162.355-36.109-209.231-94.769s-66.462-134.69-66.462-216.615v-121.846h118.154v121.846c0 62.222 15.309 111.101 40.615 142.769s59.469 50.462 116.923 50.462c57.604 0 91.695-17.757 116.923-49.231s40.615-81.152 40.615-144v-43.077h118.154v43.077c0 82.402-20.738 159.267-67.692 217.846s-121.102 93.538-208 93.538zM354.462 566.154c-65.221 0-118.154-52.933-118.154-118.154v-393.846c0-65.221 52.933-118.154 118.154-118.154h551.385c65.221 0 118.154 52.933 118.154 118.154v393.846c0 65.221-52.933 118.154-118.154 118.154h-551.385zM630.154 369.231c43.481 0 78.769-35.289 78.769-78.769 0-29.066-15.911-54.026-39.385-67.692v-89.846c0-21.701-17.684-39.385-39.385-39.385s-39.385 17.684-39.385 39.385v89.846c-23.473 13.666-39.385 38.587-39.385 67.692 0 43.481 35.289 78.769 78.769 78.769z" />
<glyph unicode="&#xe914;" glyph-name="User-Shield" d="M930.777 761.974c-7.877 8.94-18.944 14.1-30.602 14.415-90.388 2.363-204.761 99.013-280.379 136.94-46.71 23.355-77.548 38.754-100.706 42.811-2.402 0.315-4.726 0.551-7.089 0.551s-4.687-0.236-7.089-0.591c-23.158-4.057-53.996-19.456-100.667-42.811-75.618-37.888-189.991-134.577-280.379-136.901-11.658-0.315-22.764-5.514-30.641-14.415-7.956-8.901-12.052-20.756-11.461-32.847 19.417-394.752 161.004-639.055 409.442-781.036 6.459-3.663 13.627-5.553 20.756-5.553s14.297 1.89 20.795 5.553c248.438 141.982 389.986 386.284 409.442 781.036 0.63 12.091-3.466 23.946-11.422 32.847zM711.404 358.321c0-53.563-102.558-65.772-198.814-65.772-96.098 0-199.956 12.209-199.956 65.772 0 10.555 0 4.096 0 14.73 0 39.345 70.892 79.202 131.269 100.982 4.372 1.615 25.246 12.958 13.588 43.559-29.932 30.523-52.539 80.108-52.539 128.827 0 74.673 49.388 113.782 107.087 113.782s107.362-39.109 107.362-113.782c0-48.522-22.725-97.871-52.46-128.551h0.118c-11.382-34.698 6.853-42.929 9.767-43.874 63.409-20.953 134.617-60.495 134.617-100.982-0.039-10.594-0.039-4.175-0.039-14.69z" />
<glyph unicode="&#xe915;" glyph-name="View-File" d="M157.538 960c-86.646 0-157.538-70.892-157.538-157.538v-669.538c0-86.646 70.892-157.538 157.538-157.538h433.231c15.754 0 27.569 3.692 39.385 3.692-55.138 11.815-102.154 39.631-141.538 75.077h-331.077c-43.323 0-78.769 35.446-78.769 78.769v669.538c0 43.323 35.446 78.769 78.769 78.769h248.615c27.569-7.877 27.077-43.323 27.077-78.769v-118.154c0-23.631 15.754-39.385 39.385-39.385h118.154c39.385 0 78.769 0 78.769-39.385v-39.385h19.692c19.692 0 39.385-3.446 59.077-7.385v86.154c0 43.323-38.892 83.2-105.846 150.154-11.815 7.877-20.185 19.2-32 27.077-7.877 11.815-19.2 20.185-27.077 32-66.954 66.954-106.831 105.846-150.154 105.846h-275.692zM689.231 487.385c-118.154 0-216.615-98.462-216.615-216.615s98.462-216.615 216.615-216.615c50.139 0 95.896 18.558 132.923 48l12.308-12.308c-9.745-15.178-8.621-34.456 4.923-48l98.462-98.462c15.754-15.754 38.4-15.754 54.154 0l19.692 19.692c15.754 15.754 15.754 39.631 0 55.385l-98.462 98.462c-12.978 12.978-30.676 14.559-45.538 6.154l-11.077 12.308c30.441 37.355 49.231 84.303 49.231 135.385 0 118.154-98.462 216.615-216.615 216.615zM689.231 428.308c86.646 0 157.538-70.892 157.538-157.538s-70.892-157.538-157.538-157.538c-86.646 0-157.538 70.892-157.538 157.538s70.892 157.538 157.538 157.538z" />
<glyph unicode="&#xe916;" glyph-name="Volume-Down" d="M631.385 878.769c-12.662-0.079-26.624-5.716-39.385-18.462l-259.692-254.769h-135.385c-21.701 0-39.385-17.684-39.385-39.385v-236.308c0-21.701 17.684-39.385 39.385-39.385h135.385l258.462-253.538c39.385-39.385 78.769-19.22 78.769 34.462v759.385c0 31.163-17.050 48.131-38.154 48zM729.846 601.846c-18.869-3.149-33.075-19.355-33.075-38.879 0-19.085 13.573-34.999 31.592-38.617l0.252-0.042c33.744-8.822 59.077-39.356 59.077-76.308s-25.333-67.486-59.077-76.308c-17.138-4.526-29.568-19.89-29.568-38.157 0-21.762 17.642-39.404 39.404-39.404 3.503 0 6.899 0.457 10.132 1.315l-0.275-0.062c67.79 17.723 118.154 79.763 118.154 152.615s-50.364 134.892-118.154 152.615c-3.176 0.922-6.825 1.452-10.597 1.452-1.47 0-2.92-0.080-4.348-0.237l0.176 0.016c-0.551 0.028-1.197 0.043-1.846 0.043s-1.295-0.016-1.937-0.047l0.090 0.003z" />
<glyph unicode="&#xe917;" glyph-name="Volume-Up" d="M473.846 878.769c-12.662-0.079-26.624-5.716-39.385-18.462l-259.692-254.769h-135.385c-21.701 0-39.385-17.684-39.385-39.385v-236.308c0-21.701 17.684-39.385 39.385-39.385h135.385l258.462-253.538c39.385-39.385 78.769-19.22 78.769 34.462v759.385c0 31.163-17.050 48.131-38.154 48zM759.385 839.385c-18.661-3.332-32.644-19.436-32.644-38.807 0-16.206 9.787-30.126 23.773-36.172l0.255-0.098c115.659-58.361 194.462-177.509 194.462-316.308s-78.802-257.947-194.462-316.308c-15.593-5.482-26.57-20.081-26.57-37.244 0-21.754 17.635-39.389 39.389-39.389 8.056 0 15.548 2.419 21.788 6.57l-0.145-0.091c141.444 71.372 238.769 217.588 238.769 386.462s-97.326 315.090-238.769 386.462c-5.544 3.164-12.184 5.030-19.259 5.030-1.019 0-2.028-0.039-3.027-0.115l0.133 0.008c-0.551 0.028-1.197 0.043-1.846 0.043s-1.295-0.016-1.937-0.047l0.090 0.003zM674.462 731.077c-19.536-2.527-34.474-19.060-34.474-39.081 0-15.964 9.497-29.71 23.149-35.896l0.248-0.1c74.015-39.927 124.308-117.665 124.308-208 0-90.055-49.464-168.056-123.077-208-14.846-5.868-25.157-20.094-25.157-36.728 0-21.754 17.635-39.389 39.389-39.389 8.503 0 16.376 2.694 22.813 7.275l-0.121-0.082c98.262 53.319 164.923 157.609 164.923 276.923 0 119.664-67.428 223.666-166.154 276.923-5.241 3.416-11.546 5.64-18.331 6.146l-0.131 0.008c-1.107 0.11-2.392 0.173-3.692 0.173s-2.586-0.063-3.853-0.186l0.161 0.013zM572.308 601.846c-18.869-3.149-33.075-19.355-33.075-38.879 0-19.085 13.573-34.999 31.592-38.617l0.252-0.042c33.744-8.822 59.077-39.356 59.077-76.308s-25.333-67.486-59.077-76.308c-17.138-4.526-29.568-19.89-29.568-38.157 0-21.762 17.642-39.404 39.404-39.404 3.503 0 6.899 0.457 10.132 1.315l-0.275-0.062c67.79 17.723 118.154 79.763 118.154 152.615s-50.364 134.892-118.154 152.615c-3.176 0.922-6.825 1.452-10.597 1.452-1.47 0-2.92-0.080-4.348-0.237l0.176 0.016c-0.551 0.028-1.197 0.043-1.846 0.043s-1.295-0.016-1.937-0.047l0.090 0.003z" />
<glyph unicode="&#xe918;" glyph-name="Worldwide-Location" d="M748.308 960c-87.001 0-157.538-70.617-157.538-157.538 0-104.96 137.846-248.35 137.846-392.615h39.385c0.039 144.266 137.846 283.481 137.846 392.615 0 86.922-70.538 157.538-157.538 157.538zM748.308 883.692c44.859 0 81.231-36.411 81.231-81.231 0-44.938-36.372-81.231-81.231-81.231-44.82 0-81.231 36.293-81.231 81.231 0 44.82 36.411 81.231 81.231 81.231zM512 881.231c-260.608 0-472.615-212.007-472.615-472.615s212.007-472.615 472.615-472.615c260.608 0 472.615 212.007 472.615 472.615 0 79.163-19.614 153.462-54.154 219.077-5.238-10.358-10.526-20.254-16-30.769-10.358-20.007-21.238-40.222-30.769-60.308 9.807-28.16 16.62-57.935 19.692-88.615h-51.692c-2.836-13.194-4.923-25.59-4.923-38.154v-40.615h56.615c-5.711-56.99-22.971-110.277-50.462-157.538h-115.692c8.665 36.943 13.686 77.794 17.231 119.385h-77.538c-3.899-43.087-11.55-83.545-20.923-119.385h-288c-12.091 46.356-20.825 99.367-23.385 157.538h305.231v40.615c0 12.524-2.127 24.921-4.923 38.154h-300.308c2.56 58.171 11.294 111.183 23.385 157.538h210.462c-13.745 26.703-27.087 52.854-38.154 78.769h-145.231c32.571 74.319 75.609 118.154 116.923 118.154 0 27.372 4.913 53.081 13.538 77.538-4.529 0.158-8.97 1.231-13.538 1.231zM349.538 766.769c-14.769-24.458-28.042-51.899-39.385-82.462h-78.769c33.792 34.422 73.689 62.218 118.154 82.462zM171.077 605.538h115.692c-11.343-48.443-18.639-101.415-20.923-157.538h-145.231c5.671 56.99 22.971 110.277 50.462 157.538zM120.615 369.231h145.231c2.324-56.123 9.58-109.095 20.923-157.538h-115.692c-27.451 47.262-44.751 100.549-50.462 157.538zM231.385 132.923h78.769c11.343-30.562 24.615-58.004 39.385-82.462-44.465 20.244-84.362 48.039-118.154 82.462zM395.077 132.923h233.846c-32.571-74.319-75.609-118.154-116.923-118.154s-84.391 43.835-116.923 118.154zM713.846 132.923h78.769c-33.792-34.422-73.689-62.218-118.154-82.462 14.769 24.418 28.042 51.86 39.385 82.462z" />
<glyph unicode="&#xe919;" glyph-name="Partly-Cloudy-Day" d="M349.538 945.231c-0.985-0.424-1.794-0.836-2.574-1.291l0.112 0.060c-9.397-3.266-16.022-12.046-16.022-22.374 0-0.355 0.008-0.709 0.023-1.061l-0.002 0.050v-104.615c-0.052-0.587-0.081-1.269-0.081-1.958 0-4.76 1.408-9.192 3.829-12.902l-0.056 0.091c-21.508-2.203-41.345-8.624-60.308-17.231 0.001 0.098 0.002 0.213 0.002 0.328 0 5.462-1.853 10.492-4.965 14.494l0.040-0.053-51.692 91.077c-0.424 0.985-0.836 1.794-1.291 2.574l0.060-0.112c-0.4 0.43-0.801 0.831-1.216 1.218l-0.014 0.013c-0.424 0.985-0.836 1.794-1.291 2.574l0.060-0.112c-0.668 0.395-1.476 0.806-2.31 1.171l-0.152 0.059c-2.071 2.037-4.52 3.697-7.231 4.864l-0.154 0.059c-2.321 0.837-4.998 1.32-7.789 1.32-0.724 0-1.441-0.033-2.148-0.096l0.091 0.007c-1.434-0.353-2.664-0.775-3.845-1.29l0.152 0.059c-10.63-2.459-18.433-11.845-18.433-23.054 0-4.688 1.365-9.058 3.72-12.733l-0.057 0.094 52.923-91.077c1.751-4.574 4.732-8.348 8.54-11.027l0.075-0.050c-15.798-11.669-28.892-27.333-40.615-43.077-2.86 4.551-7.108 8.002-12.143 9.795l-0.165 0.051-91.077 52.923c-1.080 0.883-2.289 1.699-3.569 2.4l-0.123 0.062c-2.321 0.837-4.998 1.32-7.789 1.32-0.724 0-1.441-0.033-2.148-0.096l0.091 0.007c-1.846-0.26-3.506-0.69-5.086-1.285l0.163 0.054c-10.558-2.513-18.289-11.864-18.289-23.021 0-9.318 5.393-17.377 13.227-21.225l0.139-0.062 91.077-51.692c3.715-2.897 8.396-4.716 13.492-4.922l0.046-0.001c-8.396-18.447-12.479-38.17-14.769-59.077-1.028 0.456-2.258 0.878-3.529 1.196l-0.163 0.035c-2.5 0.983-5.395 1.552-8.423 1.552-1.372 0-2.716-0.117-4.024-0.341l0.14 0.020h-104.615c-0.738 0.082-1.594 0.129-2.462 0.129s-1.723-0.047-2.566-0.138l0.104 0.009c-0.368 0.020-0.798 0.032-1.231 0.032s-0.863-0.012-1.29-0.035l0.060 0.003c-11.391-1.848-19.982-11.613-19.982-23.385 0-13.075 10.599-23.674 23.674-23.674 1.304 0 2.582 0.105 3.829 0.308l-0.136-0.018h104.615c1.48-0.33 3.179-0.518 4.923-0.518s3.443 0.189 5.079 0.547l-0.156-0.029c1.874 1.066 3.49 2.29 4.927 3.697l-0.004-0.004c2.133-21.348 7.54-41.489 16-60.308-0.368 0.020-0.798 0.032-1.231 0.032s-0.863-0.012-1.29-0.035l0.060 0.003c-1.434-0.353-2.664-0.775-3.845-1.29l0.152 0.059c-2.822-0.85-5.278-2.111-7.446-3.736l0.061 0.044-91.077-51.692c-7.378-4.181-12.276-11.98-12.276-20.923 0-13.237 10.731-23.968 23.968-23.968 4.294 0 8.325 1.129 11.811 3.107l-0.119-0.062 91.077 52.923c8.951 3.1 15.38 11.187 15.996 20.854l0.004 0.069 56.615 38.154c-13.026 19.035-20.923 41.559-20.923 66.462 0 65.652 52.502 118.154 118.154 118.154 44.52 0 83.157-24.253 103.385-60.308l56.615 32c4.337-6.049 11.346-9.944 19.265-9.944 2.799 0 5.485 0.487 7.977 1.38l-0.165-0.052c2.356 0.976 4.388 2.218 6.192 3.723l-0.038-0.031 91.077 51.692c9.449 3.286 16.11 12.116 16.11 22.502 0 7.945-3.898 14.98-9.886 19.296l-0.070 0.048c-1.767 1.473-3.798 2.714-5.997 3.634l-0.157 0.058c-2.026 0.625-4.356 0.984-6.769 0.984s-4.743-0.36-6.938-1.028l0.168 0.044c-1.435-0.354-2.665-0.776-3.846-1.29l0.153 0.060c-2.332-0.58-4.382-1.424-6.266-2.522l0.113 0.061-91.077-52.923c-4.574-1.751-8.348-4.732-11.027-8.54l-0.050-0.075c-11.905 15.843-25.693 30.329-41.846 41.846 1.89 1.41 3.513 3.033 4.879 4.861l0.044 0.062c0.395 0.668 0.806 1.476 1.171 2.31l0.059 0.152c0.43 0.4 0.831 0.801 1.218 1.216l0.013 0.014c0.395 0.668 0.806 1.476 1.171 2.31l0.059 0.152 52.923 91.077c2.572 3.727 4.108 8.342 4.108 13.315 0 4.143-1.066 8.037-2.939 11.422l0.062-0.121c-2.664 5.043-6.949 8.929-12.149 11.020l-0.159 0.056c-2.321 0.837-4.998 1.32-7.789 1.32-0.724 0-1.441-0.033-2.148-0.096l0.091 0.007c-1.846-0.26-3.506-0.69-5.086-1.285l0.163 0.054c-7.027-1.568-12.766-6.096-15.938-12.177l-0.062-0.131-51.692-91.077c-0.395-0.668-0.806-1.476-1.171-2.31l-0.059-0.152c-2.25-3.487-3.616-7.73-3.692-12.288v-0.020c-18.837 8.192-39.065 13.85-60.308 16 0.368-0.037 0.864 1.27 1.231 1.231 0.541 1.417 0.971 3.077 1.216 4.797l0.015 0.126c0.644 1.81 1.083 3.906 1.227 6.083l0.004 0.071c0.046 0.553 0.072 1.196 0.072 1.846s-0.026 1.293-0.078 1.93l0.005-0.084v104.615c-0.017 2.647-0.466 5.184-1.28 7.551l0.050-0.166c-0.353 1.434-0.775 2.664-1.29 3.845l0.059-0.152c-0.689 1.882-1.519 3.507-2.516 5.011l0.055-0.087c-0.4 0.43-0.801 0.831-1.216 1.218l-0.014 0.013c-2.654 2.767-5.963 4.885-9.679 6.106l-0.167 0.048c-2.5 0.983-5.395 1.552-8.423 1.552-1.372 0-2.716-0.117-4.024-0.341l0.14 0.020zM669.538 684.308c-89.108 0-164.228-51.167-204.308-124.308-10.791 2.033-20.281 6.154-32 6.154-94.796 0-171.141-69.198-189.538-158.769-2.657 0.15-4.666 1.231-7.385 1.231-86.53 0-157.538-71.008-157.538-157.538s71.008-157.538 157.538-157.538h590.769c108.289 0 196.923 88.634 196.923 196.923 0 81.109-51.395 148.511-121.846 178.462-11.064 119.937-109.896 215.385-232.615 215.385zM669.538 605.538c87.505 0 157.538-70.033 157.538-157.538 0 5.411 0.189 3.758 0-4.923l-1.231-30.769 30.769-7.385c51.182-13.047 88.615-58.988 88.615-114.462 0-65.713-52.441-118.154-118.154-118.154h-590.769c-43.911 0-78.769 34.858-78.769 78.769s34.858 78.769 78.769 78.769c8.727 0 17.697-1.563 27.077-4.923l56.615-20.923-3.692 60.308c-0.158 2.531-1.046 3.746-1.231 4.923 0 1.011-0.079 0.918 0 1.231-0.043 0.206 0.040 1.101 0 1.231 1.341 64.51 53.296 115.692 118.154 115.692 13.148 0 26.062-2.658 39.385-7.385l36.923-12.308 13.538 35.692c22.464 59.693 78.685 102.154 146.462 102.154z" />
<glyph unicode="&#xe91a;" glyph-name="Partly-Cloudy-Night" d="M302.769 952.615c57.502-37.258 94.769-113.654 94.769-205.538 0-84.441-108.642-184.615-184.615-184.615-91.884 0-155.284 22.262-205.538 94.769 16.935-94.444 86.922-169.63 177.231-196.923 3.82 0.906 7.217 2.983 11.077 3.692 37.691 94.523 129.782 161.231 237.538 161.231h1.231c21.189 28.121 47.006 52.441 76.308 71.385 0.079 2.284 0 3.83 0 6.154 0 125.007-89.413 228.618-208 249.846zM806.154 940.308l-19.692-71.385-71.385 18.462 51.692-52.923-51.692-52.923 71.385 18.462 19.692-71.385 20.923 71.385 71.385-18.462-51.692 52.923 51.692 52.923-71.385-18.462-20.923 71.385zM669.538 684.308c-89.108 0-164.228-51.167-204.308-124.308-10.791 2.033-20.281 6.154-32 6.154-94.796 0-171.141-69.198-189.538-158.769-2.657 0.15-4.666 1.231-7.385 1.231-86.53 0-157.538-71.008-157.538-157.538s71.008-157.538 157.538-157.538h590.769c108.289 0 196.923 88.634 196.923 196.923 0 81.109-51.395 148.511-121.846 178.462-11.064 119.937-109.896 215.385-232.615 215.385zM669.538 605.538c87.505 0 157.538-70.033 157.538-157.538 0 5.411 0.189 3.758 0-4.923l-1.231-30.769 30.769-7.385c51.182-13.047 88.615-58.988 88.615-114.462 0-65.713-52.441-118.154-118.154-118.154h-590.769c-43.911 0-78.769 34.858-78.769 78.769s34.858 78.769 78.769 78.769c8.727 0 17.697-1.563 27.077-4.923l56.615-20.923-3.692 60.308c-0.158 2.531-1.046 3.746-1.231 4.923 0 1.011-0.079 0.918 0 1.231-0.043 0.206 0.040 1.101 0 1.231 1.341 64.51 53.296 115.692 118.154 115.692 13.148 0 26.062-2.658 39.385-7.385l36.923-12.308 13.538 35.692c22.464 59.693 78.685 102.154 146.462 102.154z" />
<glyph unicode="&#xe91b;" glyph-name="Password1" d="M694.154 952.615c-66.087 0-127.695-26.772-178.462-77.538-57.659-57.62-83.988-128.532-76.308-204.308 5.789-56.268 31.442-112.972 72.615-163.692l-285.538-285.538-51.692 51.692c-25.206 25.324-46.139 4.322-71.385-20.923l-24.615-25.846c-25.285-25.167-46.169-44.908-20.923-70.154l51.692-51.692-40.615-40.615c-25.246-25.206-25.246-65.792 0-91.077 25.206-25.167 65.831-25.167 91.077 0l448 448c48.528-30.419 101.222-46.769 152.615-46.769 66.048 0 127.734 26.772 178.462 77.538 57.698 57.62 84.066 128.532 76.308 204.308-6.932 68.175-43.146 136.763-100.923 194.462-65.457 65.536-143.626 102.154-220.308 102.154zM696.615 871.385c54.902 0 111.882-28.071 161.231-77.538 43.874-43.756 71.227-94.612 76.308-144 5.238-51.358-12.83-100.254-52.923-140.308-35.919-35.879-77.785-54.154-123.077-54.154-54.902 0-111.764 28.15-161.231 77.538-43.835 43.835-71.227 94.612-76.308 144-5.199 51.358 12.83 100.214 52.923 140.308 35.919 35.84 77.785 54.154 123.077 54.154z" />
<glyph unicode="&#xe91c;" glyph-name="Past" d="M512 960l-196.923-118.154 196.923-118.154v78.769c195.133 0 354.462-159.329 354.462-354.462s-159.329-354.462-354.462-354.462c-195.133 0-354.462 159.329-354.462 354.462 0 96.614 34.789 180.020 98.462 243.692l-55.385 55.385c-78.112-78.112-121.846-183.014-121.846-299.077 0-238.098 195.133-433.231 433.231-433.231s433.231 195.133 433.231 433.231c0 238.098-195.133 433.231-433.231 433.231v78.769zM429.538 701.538l-71.385-34.462 99.692-196.923c-2.712-6.78-4.923-14.405-4.923-22.154 0-0.808-0.032-1.662 0-2.462l-126.769-126.769 56.615-56.615 126.769 126.769c0.8-0.032 1.654 0 2.462 0 32.627 0 59.077 26.45 59.077 59.077 0 27.189-18.073 49.738-43.077 56.615l-98.462 196.923z" />
<glyph unicode="&#xe91d;" glyph-name="Pause" d="M275.692 763.077c-21.701 0-39.385-17.684-39.385-39.385v-551.385c0-21.701 17.684-39.385 39.385-39.385h118.154c21.701 0 39.385 17.684 39.385 39.385v551.385c0 21.701-17.684 39.385-39.385 39.385h-118.154zM630.154 763.077c-21.701 0-39.385-17.684-39.385-39.385v-551.385c0-21.701 17.684-39.385 39.385-39.385h118.154c21.701 0 39.385 17.684 39.385 39.385v551.385c0 21.701-17.684 39.385-39.385 39.385h-118.154z" />
<glyph unicode="&#xe91e;" glyph-name="Phone" d="M881.664 250.053c-60.967 52.145-122.841 83.732-183.060 31.665l-35.958-31.468c-26.309-22.843-75.225-129.575-264.35 87.985-189.086 217.285-76.564 251.116-50.215 273.762l36.155 31.508c59.904 52.185 37.297 117.878-5.908 185.502l-26.073 40.96c-43.402 67.466-90.663 111.774-150.725 59.668l-32.453-28.357c-26.545-19.338-100.746-82.196-118.745-201.61-21.662-143.281 46.671-307.358 203.225-487.385 156.357-180.106 309.445-270.572 454.459-268.997 120.517 1.3 193.3 65.969 216.064 89.482l32.571 28.396c59.904 52.066 22.686 105.078-38.321 157.342l-36.667 31.547z" />
<glyph unicode="&#xe91f;" glyph-name="Play" d="M795.884 493.017l-524.052 259.82c-15.872 7.995-34.816 7.129-49.94-2.048-15.202-9.137-24.379-25.442-24.379-42.929v-519.798c0-17.447 9.177-33.713 24.379-42.89 8.192-4.962 17.487-7.483 26.9-7.483 7.916 0 15.793 1.812 23.079 5.435l524.052 259.899c17.25 8.586 28.199 25.915 28.199 45.017s-10.988 36.391-28.239 44.977z" />
<glyph unicode="&#xe920;" glyph-name="Polyline" d="M945.231 952.615c-39.436 0-71.385-31.949-71.385-71.385 0-7.592 1.497-15.29 3.692-22.154l-108.308-107.077c-6.55 1.98-13.727 3.692-20.923 3.692-19.718 0-37.54-8.001-50.462-20.923l-233.846 76.308c-4.22 35.41-33.608 62.769-70.154 62.769-39.436 0-71.385-31.949-71.385-71.385 0-36.138 26.702-65.411 61.538-70.154l119.385-388.923c-4.211-3.833-7.879-8.805-11.077-13.538l-188.308 22.154c-9.206 28.789-35.849 49.231-67.692 49.231-39.436 0-71.385-31.949-71.385-71.385 0-16.002 5.879-29.94 14.769-41.846l-100.923-201.846c-39.436 0-71.385-31.949-71.385-71.385s31.949-71.385 71.385-71.385c39.436 0 71.385 31.949 71.385 71.385 0 16.343-5.532 31.043-14.769 43.077l100.923 200.615c24.040 0 44.906 12.559 57.846 30.769l190.769-22.154c9.639-28.032 35.158-48 66.462-48 39.436 0 71.385 31.949 71.385 71.385 0 35.73-26.045 64.906-60.308 70.154l-119.385 390.154v1.231h1.231l233.846-77.538c4.742-34.837 34.016-61.538 70.154-61.538 39.436 0 71.385 31.949 71.385 71.385 0 8.528-2.181 17.034-4.923 24.615l107.077 105.846c7.282-2.504 15.253-4.923 23.385-4.923 39.436 0 71.385 31.949 71.385 71.385s-31.949 71.385-71.385 71.385z" />
<glyph unicode="&#xe921;" glyph-name="Previous" d="M832 960h-640c-106.063 0-192-85.937-192-192v-640c0-106.063 85.937-192 192-192h640c106.063 0 192 85.937 192 192v640c0 106.063-85.937 192-192 192zM630.154 253.086c0-13.154-7.444-25.364-18.865-32.177-11.382-6.892-25.561-7.522-37.494-1.536l-245.327 194.875c-13.273 11.658-21.15 19.456-21.15 33.753s9.334 22.646 21.15 33.753l245.327 194.914c5.474 2.678 11.343 4.096 17.29 4.096 7.050 0 14.021-1.93 20.204-5.671 11.422-6.814 18.865-19.062 18.865-32.138v-389.868z" />
<glyph unicode="&#xe922;" glyph-name="Privacy" d="M512 960c-151.452 0-275.692-124.241-275.692-275.692v-39.385h-39.385c-43.323 0-78.769-35.446-78.769-78.769v-472.615c0-43.323 35.446-78.769 78.769-78.769h630.154c43.323 0 78.769 35.446 78.769 78.769v472.615c0 43.323-35.446 78.769-78.769 78.769h-39.385v39.385c0 151.452-124.241 275.692-275.692 275.692zM512 881.231c108.487 0 196.923-88.436 196.923-196.923v-39.385h-393.846v39.385c0 108.487 88.436 196.923 196.923 196.923zM512 526.769c110.277 0 196.923-86.646 196.923-196.923s-86.646-196.923-196.923-196.923c-110.277 0-196.923 86.646-196.923 196.923s86.646 196.923 196.923 196.923zM512 448c-66.954 0-118.154-51.2-118.154-118.154s51.2-118.154 118.154-118.154c66.954 0 118.154 51.2 118.154 118.154 0 11.815-3.692 23.877-3.692 35.692-11.815-19.692-31.754-35.692-55.385-35.692-31.508 0-59.077 27.569-59.077 59.077 0 23.631 16 43.569 35.692 55.385-11.815 0-23.877 3.692-35.692 3.692z" />
<glyph unicode="&#xe923;" glyph-name="QR-Code" d="M0 960v-354.462h354.462v354.462h-354.462zM433.231 960v-78.769h78.769v78.769h-78.769zM512 881.231v-78.769h-78.769v-157.538h78.769v78.769h78.769v157.538h-78.769zM512 644.923v-118.154h-354.462v-78.769h-78.769v-78.769h157.538v78.769h78.769v-78.769h196.923v78.769h78.769v-78.769h118.154v78.769h78.769v78.769h-196.923v118.154h-78.769zM787.692 448v-78.769h236.308v78.769h-78.769v78.769h-78.769v-78.769h-78.769zM78.769 448v78.769h-78.769v-78.769h78.769zM669.538 960v-354.462h354.462v354.462h-354.462zM78.769 881.231h196.923v-196.923h-196.923v196.923zM748.308 881.231h196.923v-196.923h-196.923v196.923zM118.154 841.846v-118.154h118.154v118.154h-118.154zM787.692 841.846v-118.154h118.154v118.154h-118.154zM433.231 329.846v-78.769h78.769v78.769h-78.769zM512 251.077v-78.769h-78.769v-157.538h78.769v78.769h157.538v78.769h78.769v78.769h78.769v-78.769h-78.769v-78.769h-78.769v-157.538h78.769v78.769h78.769v78.769h39.385v-78.769h-39.385v-78.769h78.769v78.769h39.385v78.769h78.769v157.538h-78.769v78.769h-275.692v-78.769h-157.538zM945.231 14.769v-78.769h78.769v78.769h-78.769zM512 14.769v-78.769h78.769v78.769h-78.769zM0 290.462v-354.462h354.462v354.462h-354.462zM78.769 211.692h196.923v-196.923h-196.923v196.923zM118.154 172.308v-118.154h118.154v118.154h-118.154z" />
<glyph unicode="&#xe924;" glyph-name="Radio" d="M925.538 957.538c-31.279 0-56.615-25.337-56.615-56.615l-685.538-189.538c-7.875 2.99-16.923 4.923-25.846 4.923-39.436 0-71.385-31.949-71.385-71.385 0-1.632-0.108-3.319 0-4.923-49.423-14.135-86.154-59.288-86.154-113.231v-433.231c0-65.221 52.933-118.154 118.154-118.154h787.692c65.221 0 118.154 52.933 118.154 118.154v433.231c0 65.221-52.933 118.154-118.154 118.154h-676.923c0 10.928-2.996 21.509-7.385 30.769l656 196.923c9.808-16.868 27.082-28.308 48-28.308 31.279 0 56.615 25.337 56.615 56.615s-25.337 56.615-56.615 56.615zM689.231 534.154c123.51 0 224-100.608 224-224s-100.49-224-224-224c-123.431 0-224 100.608-224 224s100.569 224 224 224zM177.231 530.462c34.54 0 62.769-28.229 62.769-62.769s-28.229-62.769-62.769-62.769c-34.58 0-62.769 28.229-62.769 62.769s28.19 62.769 62.769 62.769zM689.231 480c-36.903 0-70.617-12.032-98.462-32h196.923c-27.845 19.968-61.519 32-98.462 32zM551.385 408.615c-8.625-12.091-15.685-25.285-20.923-39.385h317.538c-5.278 14.1-12.337 27.294-20.923 39.385h-275.692zM177.231 333.538c34.54 0 62.769-28.229 62.769-62.769s-28.229-62.769-62.769-62.769c-34.58 0-62.769 28.229-62.769 62.769s28.19 62.769 62.769 62.769zM521.846 329.846c-0.788-6.538-2.462-12.918-2.462-19.692s1.674-13.154 2.462-19.692h334.769c0.788 6.538 2.462 12.918 2.462 19.692s-1.713 13.154-2.462 19.692h-334.769zM530.462 251.077c5.278-14.1 12.298-27.294 20.923-39.385h275.692c8.625 12.091 15.685 25.285 20.923 39.385h-317.538zM590.769 172.308c27.845-19.968 61.558-32 98.462-32 36.943 0 70.617 12.032 98.462 32h-196.923z" />
<glyph unicode="&#xe925;" glyph-name="Rain" d="M610.462 960c-90.222 0-164.936-50.935-210.462-121.846-8.567 1.176-16.596 3.692-25.846 3.692-98.553 0-177.243-68.332-203.077-158.769-94.44-3.456-171.077-80.761-171.077-176 0-97.415 79.815-177.231 177.231-177.231h630.154c119.161 0 216.615 97.454 216.615 216.615 0 101.425-71.742 183.63-166.154 206.769-23.552 117.015-123.718 206.769-247.385 206.769zM610.462 881.231c93.449 0 168.541-71.208 176-162.462l3.692-33.231 32-2.462c69.442-7.415 123.077-65.122 123.077-136.615 0-76.58-61.266-137.846-137.846-137.846h-630.154c-54.846 0-98.462 43.616-98.462 98.462s43.616 98.462 98.462 98.462c3.574 0 7.861-0.15 14.769-1.231l41.846-7.385 3.692 41.846c6.957 70.003 64.775 124.308 136.615 124.308 10.263 0 20.88-1.045 32-3.692l30.769-7.385 13.538 28.308c28.521 59.685 89.152 100.923 160 100.923zM825.846 296.615c-37.415-19.377-123.018-50.668-145.231-86.154-22.331-35.525-12.18-82.324 23.385-104.615 35.407-22.252 79.606-8.94 104.615 24.615 22.252 29.854 17.191 85.849 17.231 166.154zM274.462 257.231c-37.415-19.377-123.018-50.668-145.231-86.154-22.331-35.525-12.18-82.324 23.385-104.615 35.407-22.252 79.606-8.94 104.615 24.615 22.252 29.854 17.191 85.849 17.231 166.154zM550.154 139.077c-37.415-19.377-123.018-50.668-145.231-86.154-22.331-35.525-12.18-82.324 23.385-104.615 35.407-22.252 79.606-8.94 104.615 24.615 22.252 29.854 17.191 85.849 17.231 166.154z" />
<glyph unicode="&#xe926;" glyph-name="Record" d="M512 716.308c-148.193 0-268.308-120.115-268.308-268.308s120.115-268.308 268.308-268.308c148.193 0 268.308 120.115 268.308 268.308s-120.115 268.308-268.308 268.308z" />
<glyph unicode="&#xe927;" glyph-name="Recurring-Appointment" d="M512 960c-282.062 0-512-229.938-512-512 0-282.097 229.944-512 512-512 258.164 0 472.616 192.52 507.077 441.846 0.654 3.3 1.029 7.095 1.029 10.977 0 32.631-26.452 59.083-59.083 59.083-30.862 0-56.198-23.663-58.853-53.836l-0.016-0.224c-26.507-191.781-190.433-339.692-390.154-339.692-218.207 0-393.846 175.601-393.846 393.846 0 218.201 175.645 393.846 393.846 393.846 127.431 0 240.59-60.439 312.615-153.846l-70.154-70.154c-5.947-5.947-7.444-15.429-4.923-23.385 2.363-7.956 8.999-13.076 17.231-14.769 106.22-20.874 228.726-11.668 233.846-11.077 5.199 0.67 9.994 3.84 13.538 7.385 3.545 3.466 6.676 7.070 7.385 12.308 0.63 5.12 9.876 128.699-11.077 235.077-1.615 8.192-6.853 14.828-14.769 17.231-8.034 2.442-17.477 0.985-23.385-4.923l-64-64c-93.884 114.682-236.887 188.308-396.308 188.308z" />
<glyph unicode="&#xe928;" glyph-name="Refresh-Shield" d="M930.777 761.974c-7.877 8.94-18.944 14.1-30.602 14.415-90.388 2.363-204.761 99.013-280.379 136.94-46.71 23.355-77.509 38.754-100.706 42.811-2.363 0.315-4.726 0.551-7.089 0.551s-4.726-0.236-7.050-0.591c-23.198-4.057-54.036-19.456-100.667-42.811-75.658-37.888-190.031-134.577-280.458-136.901-11.618-0.315-22.725-5.514-30.602-14.415-7.956-8.901-12.052-20.756-11.461-32.847 19.456-394.752 161.004-639.055 409.442-781.036 6.459-3.663 13.627-5.553 20.795-5.553s14.336 1.89 20.795 5.553c248.438 141.982 389.986 386.284 409.442 781.036 0.591 12.091-3.505 23.946-11.461 32.847zM697.423 439.69c-11.303-30.996-74.319-175.419-254.818-143.084-5.356-18.786-18.274-59.628-22.252-72.231-0.748-2.442-1.93-2.599-3.387-0.315-15.399 23.040-104.133 156.908-105.866 159.665-2.048 2.914 1.142 4.293 1.142 4.293s165.297 75.776 170.496 78.139c5.317 2.481 3.899-3.466 3.899-3.466l-21.386-77.785c0 0 25.324-15.202 75.146-14.1 73.492 1.497 137.413 54.784 154.585 70.341 2.796 2.757 3.82 2.166 2.442-1.457zM710.262 585.216c-4.687-2.363-143.793-64.709-172.15-78.887-5.317-2.718-3.899 2.442-3.899 2.442l22.095 80.069c0 0-25.679 15.439-76.249 14.415-72.113-1.536-135.010-51.988-154.86-69.711-4.214-3.663-5.593-3.269-3.82 1.497 13.036 34.619 77.863 175.695 257.772 143.439 5.238 18.117 17.369 56.438 22.016 71.129 1.812 5.002 5.317 0.827 5.317 0.827l105.551-159.311c-0.039 0 1.733-4.175-1.772-5.908z" />
<glyph unicode="&#xe929;" glyph-name="Rename" d="M519.385 960c-30.048-3.222-53.243-28.441-53.243-59.077 0-32.804 26.593-59.397 59.397-59.397 2.168 0 4.308 0.116 6.415 0.342l-0.262-0.023c85.211 0 114.035-23.069 126.769-38.154 12.168-14.415 11.14-20.313 11.077-20.923-0.003-0.028 0-1.231 0-1.231v-124.308c-1.125-3.496-1.774-7.519-1.774-11.692s0.649-8.196 1.85-11.971l-0.077 0.279v-375.385c-0.522-2.405-0.821-5.168-0.821-8s0.299-5.595 0.867-8.258l-0.046 0.258v-129.231c0 0 0.971-6.404-11.077-20.923s-39.66-38.154-126.769-38.154c-0.248 0.004-0.542 0.006-0.835 0.006-32.631 0-59.083-26.452-59.083-59.083s26.452-59.083 59.083-59.083c0.294 0 0.587 0.002 0.88 0.006l-0.044-0.001c93.213 0 156.796 25.738 196.923 60.308 40.127-34.569 103.71-60.308 196.923-60.308 0.248-0.004 0.542-0.006 0.835-0.006 32.631 0 59.083 26.452 59.083 59.083s-26.452 59.083-59.083 59.083c-0.294 0-0.587-0.002-0.88-0.006l0.044 0.001c-87.109 0-114.721 23.635-126.769 38.154s-11.077 20.923-11.077 20.923v98.462h196.923c21.751 0.002 39.382 17.634 39.385 39.384v0 393.846c-0.002 21.751-17.634 39.382-39.384 39.385h-196.923v98.462c0.002 0.183 0.003 0.399 0.003 0.615s-0.001 0.432-0.003 0.648v-0.033c-0.083 1.676 0.34 6.974 11.077 19.692 12.734 15.085 41.559 38.154 126.769 38.154 0.248-0.004 0.542-0.006 0.835-0.006 32.631 0 59.083 26.452 59.083 59.083s-26.452 59.083-59.083 59.083c-0.294 0-0.587-0.002-0.88-0.006l0.044 0.001c-92.957 0-156.803-26.617-196.923-61.538-40.12 34.922-103.966 61.538-196.923 61.538-0.919 0.051-1.995 0.080-3.077 0.080s-2.158-0.029-3.226-0.087l0.149 0.006c-0.919 0.051-1.995 0.080-3.077 0.080s-2.158-0.029-3.226-0.086l0.149 0.006zM32 684.308c-18.351-3.595-32.006-19.548-32.006-38.691 0-0.244 0.002-0.488 0.007-0.731l-0.001 0.037v-393.846c0.002-21.751 17.634-39.382 39.384-39.385h551.385v78.769h-512v315.077h512v78.769h-551.385c-0.551 0.028-1.197 0.043-1.846 0.043s-1.295-0.016-1.937-0.047l0.090 0.003c-0.551 0.028-1.197 0.043-1.846 0.043s-1.295-0.016-1.937-0.047l0.090 0.003zM787.692 605.538h157.538v-315.077h-157.538v315.077zM157.538 526.769v-157.538h354.462v157.538h-354.462z" />
<glyph unicode="&#xe92a;" glyph-name="Renew-Subscription" d="M157.538 960v-748.308c0-21.841-17.544-39.385-39.385-39.385s-39.385 17.544-39.385 39.385v472.615h39.385v78.769h-118.154v-551.385c0-64.806 53.348-118.154 118.154-118.154h393.846c-7.877 23.631-12.308 51.2-12.308 78.769h-270.769c4.499 12.437 7.385 25.478 7.385 39.385v669.538h630.154v-433.231c27.569-7.877 55.138-19.692 78.769-39.385v551.385h-787.692zM315.077 802.462v-157.538h472.615v157.538h-472.615zM315.077 566.154v-78.769h196.923v78.769h-196.923zM590.769 566.154v-78.769h196.923v78.769h-196.923zM315.077 448v-78.769h196.923v78.769h-196.923zM787.692 408.615c-130.907 0-236.308-105.401-236.308-236.308s105.401-236.308 236.308-236.308v78.769c-89.647 0-157.538 67.892-157.538 157.538s67.892 157.538 157.538 157.538c89.647 0 157.538-67.892 157.538-157.538 0-34.186-9.712-65.798-27.077-91.077l-51.692 51.692-19.692-177.231 177.231 19.692-49.231 49.231c32.731 41.122 49.231 93.468 49.231 147.692 0 130.907-105.401 236.308-236.308 236.308zM315.077 329.846v-78.769h196.923v78.769h-196.923z" />
<glyph unicode="&#xe92b;" glyph-name="Repeat" d="M636.308 960c-5.002 0-10.161-1.408-14.769-3.692l-167.385-164.923c-10.004-9.452-18.462-16.177-18.462-28.308 0-12.091 7.276-18.383 18.462-28.308l167.385-164.923c10.004-5.12 22.43-4.559 32 1.231 9.649 5.75 16 15.97 16 27.077v86.154h78.769c66.23 0 118.154-51.924 118.154-118.154v-236.308c0-66.23-51.924-118.154-118.154-118.154-0.331 0.005-0.722 0.008-1.114 0.008-43.507 0-78.777-35.27-78.777-78.777s35.27-78.777 78.777-78.777c0.392 0 0.783 0.003 1.173 0.009l-0.059-0.001c151.331 0 275.692 124.362 275.692 275.692v236.308c0 151.331-124.362 275.692-275.692 275.692h-78.769v86.154c0 11.067-6.311 21.327-16 27.077-5.159 3.151-11.284 4.923-17.231 4.923zM275.692 841.846c-151.331 0-275.692-124.362-275.692-275.692v-236.308c0-151.331 124.362-275.692 275.692-275.692h78.769v-86.154c0-11.067 6.311-21.327 16-27.077 5.159-3.19 11.284-4.923 17.231-4.923 5.002 0 10.161 1.408 14.769 3.692l167.385 164.923c10.004 9.452 18.462 16.177 18.462 28.308 0.039 12.052-7.276 18.383-18.462 28.308l-167.385 164.923c-10.004 5.12-22.43 4.559-32-1.231-9.649-5.75-16-15.97-16-27.077v-86.154h-78.769c-66.23 0-118.154 51.924-118.154 118.154v236.308c0 66.23 51.924 118.154 118.154 118.154 0.331-0.005 0.722-0.008 1.114-0.008 43.507 0 78.777 35.27 78.777 78.777s-35.27 78.777-78.777 78.777c-0.392 0-0.783-0.003-1.173-0.009l0.059 0.001z" />
<glyph unicode="&#xe92c;" glyph-name="Restriction-Shield" d="M930.777 761.974c-7.877 8.94-18.944 14.1-30.602 14.415-90.388 2.363-204.761 99.013-280.379 136.94-46.71 23.355-77.548 38.754-100.706 42.811-2.402 0.315-4.726 0.551-7.089 0.551s-4.687-0.236-7.089-0.591c-23.158-4.057-53.996-19.456-100.667-42.811-75.618-37.888-189.991-134.577-280.379-136.901-11.658-0.315-22.764-5.514-30.641-14.415-7.956-8.901-12.052-20.756-11.461-32.847 19.417-394.752 161.004-639.055 409.442-781.036 6.459-3.663 13.627-5.553 20.756-5.553s14.297 1.89 20.795 5.553c248.438 141.982 389.986 386.284 409.442 781.036 0.63 12.091-3.466 23.946-11.422 32.847zM512 248.832c-131.742 0-238.553 106.811-238.553 238.553s106.811 238.553 238.553 238.553 238.553-106.811 238.553-238.553-106.811-238.553-238.553-238.553zM609.674 624.876l-235.166-235.166c-19.692 27.648-31.586 61.243-31.586 97.674 0 93.184 75.855 169.078 169.078 169.078 36.47 0 69.986-11.855 97.674-31.586zM649.452 585.058c19.732-27.648 31.626-61.243 31.626-97.674 0-93.184-75.855-169.078-169.078-169.078-36.47 0-70.026 11.894-97.674 31.586l235.126 235.166z" />
<glyph unicode="&#xe92d;" glyph-name="Rewind" d="M499.692 758.154c-7.916 0-16.098-1.3-23.385-4.923l-327.385-259.692c-15.754-14.809-28.308-26.437-28.308-45.538s10.663-29.942 28.308-45.538l327.385-259.692c15.872-7.995 35.338-6.715 50.462 2.462 15.202 9.137 24.615 25.59 24.615 43.077v145.231l240-190.769c15.872-7.995 35.338-6.715 50.462 2.462 15.202 9.137 24.615 25.59 24.615 43.077v519.385c0 17.447-9.413 33.9-24.615 43.077-8.192 4.962-17.664 7.385-27.077 7.385-7.916 0-16.098-1.3-23.385-4.923l-240-190.769v145.231c0 17.447-9.413 33.9-24.615 43.077-8.192 4.962-17.664 7.385-27.077 7.385z" />
<glyph unicode="&#xe92e;" glyph-name="RFID-Tag" d="M268.308 960c-8.259-1.554-15.415-5.496-20.919-11.073l-236.312-236.312c-6.859-7.080-11.087-16.744-11.087-27.395 0-0.321 0.004-0.641 0.011-0.96l-0.001 0.047v-669.538c0-43.050 35.719-78.769 78.769-78.769h866.462c43.050 0 78.769 35.719 78.769 78.769v866.462c0 43.050-35.719 78.769-78.769 78.769h-669.538c-0.551 0.028-1.197 0.043-1.846 0.043s-1.295-0.016-1.937-0.047l0.090 0.003c-0.551 0.028-1.197 0.043-1.846 0.043s-1.295-0.016-1.937-0.047l0.090 0.003zM292.923 881.231h652.308v-866.462h-866.462v652.308l214.154 214.154zM347.077 841.846c-8.259-1.554-15.415-5.496-20.919-11.073l-196.927-196.927c-6.859-7.080-11.087-16.744-11.087-27.395 0-0.321 0.004-0.641 0.011-0.96l-0.001 0.047v-512c0.002-21.751 17.634-39.382 39.384-39.385h708.923c0.166-0.003 0.361-0.004 0.557-0.004 21.754 0 39.389 17.635 39.389 39.389s-17.635 39.389-39.389 39.389c-0.196 0-0.391-0.001-0.586-0.004h-669.509v455.385l174.769 174.769h455.385v-512h-512v297.846l96 96h297.846v-196.923h-78.769v68.923c0 5.435-4.411 9.846-9.846 9.846h-216.615c-5.435 0-9.846-4.411-9.846-9.846v-216.615c0-5.435 4.411-9.846 9.846-9.846h216.615c5.435 0 9.846 4.411 9.846 9.846v68.923h118.154c21.751 0.002 39.382 17.634 39.385 39.384v0 275.692c-0.002 21.751-17.634 39.382-39.384 39.385h-354.462c-0.272 0.007-0.591 0.011-0.912 0.011-10.652 0-20.316-4.228-27.406-11.097l-118.144-118.144c-6.859-7.080-11.087-16.744-11.087-27.395 0-0.321 0.004-0.641 0.011-0.96l-0.001 0.047v-354.462c0.002-21.751 17.634-39.382 39.384-39.385h590.769c21.751 0.002 39.382 17.634 39.385 39.384v0 590.769c-0.002 21.751-17.634 39.382-39.384 39.385h-512c-0.551 0.028-1.197 0.043-1.846 0.043s-1.295-0.016-1.937-0.047l0.090 0.003c-0.551 0.028-1.197 0.043-1.846 0.043s-1.295-0.016-1.937-0.047l0.090 0.003z" />
<glyph unicode="&#xe92f;" glyph-name="Ruler" d="M748.308 957.538c-2.679-0.127-5.204-0.568-7.608-1.288l0.223 0.057c-5.838-1.543-10.839-4.55-14.761-8.606l-713.855-713.855c-5.273-5.619-8.512-13.2-8.512-21.538s3.239-15.92 8.528-21.555l-0.016 0.017 242.462-242.462c5.662-5.483 13.39-8.863 21.907-8.863 1.389 0 2.756 0.090 4.098 0.264l-0.158-0.017c6.768 1.070 12.677 4.158 17.236 8.621l-0.006-0.005 713.846 713.846c5.273 5.619 8.512 13.2 8.512 21.538s-3.239 15.92-8.528 21.555l0.016-0.017-242.462 242.462c-0.784 0.874-1.588 1.677-2.432 2.436l-0.029 0.026c-0.404 0.426-0.805 0.827-1.217 1.217l-0.014 0.013c-3.154 2.238-6.862 3.941-10.864 4.881l-0.213 0.042c-1.78 0.568-3.868 1.002-6.021 1.22l-0.133 0.011zM747.077 880l196.923-195.692-668.308-668.308-196.923 195.692 48 48 60.308-60.308c5.823-7.165 14.636-11.705 24.509-11.705 2.216 0 4.379 0.229 6.465 0.664l-0.205-0.036c2.358 0.674 4.4 1.512 6.322 2.544l-0.168-0.083c1.024 0.457 1.832 0.868 2.619 1.312l-0.157-0.082c2.348 1.078 4.37 2.311 6.227 3.746l-0.073-0.054c0.426 0.404 0.827 0.805 1.217 1.217l0.013 0.014c1.834 1.474 3.449 3.089 4.876 4.862l0.047 0.061c3.075 4.78 4.902 10.616 4.902 16.879 0 10.133-4.783 19.149-12.215 24.914l-0.072 0.054-60.308 60.308 39.385 39.385 60.308-60.308c5.823-7.165 14.636-11.705 24.509-11.705 2.216 0 4.379 0.229 6.465 0.664l-0.205-0.036c2.358 0.674 4.4 1.512 6.322 2.544l-0.168-0.083c1.024 0.457 1.832 0.868 2.619 1.312l-0.157-0.082c2.348 1.078 4.37 2.311 6.227 3.746l-0.073-0.054c0.426 0.404 0.827 0.805 1.217 1.217l0.013 0.014c1.834 1.474 3.449 3.089 4.876 4.862l0.047 0.061c3.075 4.78 4.902 10.616 4.902 16.879 0 10.133-4.783 19.149-12.215 24.914l-0.072 0.054-60.308 60.308 39.385 39.385 114.462-115.692c2.114-2.388 4.546-4.429 7.246-6.075l0.139-0.079c0.629-0.362 1.437-0.774 2.264-1.15l0.197-0.080c1.754-0.949 3.796-1.788 5.931-2.406l0.223-0.055c0.629-0.362 1.437-0.774 2.264-1.15l0.197-0.080c1.85-0.386 3.976-0.607 6.154-0.607s4.304 0.221 6.357 0.642l-0.203-0.035c2.358 0.674 4.4 1.512 6.322 2.544l-0.168-0.083c1.024 0.457 1.832 0.868 2.619 1.312l-0.157-0.082c2.348 1.078 4.37 2.311 6.227 3.746l-0.073-0.054c0.426 0.404 0.827 0.805 1.217 1.217l0.013 0.014c1.834 1.474 3.449 3.089 4.876 4.862l0.047 0.061c3.075 4.78 4.902 10.616 4.902 16.879 0 10.133-4.783 19.149-12.215 24.914l-0.072 0.054-114.462 115.692 38.154 38.154 60.308-59.077c5.801-6.105 13.98-9.903 23.047-9.903 3.191 0 6.273 0.471 9.178 1.346l-0.225-0.058c6.534 2.021 12 5.895 15.945 11.003l0.055 0.074c4.181 5.328 6.705 12.13 6.705 19.521 0 8.704-3.5 16.59-9.17 22.328l-60.305 60.305 38.154 38.154 60.308-59.077c5.801-6.105 13.98-9.903 23.047-9.903 3.191 0 6.273 0.471 9.178 1.346l-0.225-0.058c6.534 2.021 12 5.895 15.945 11.003l0.055 0.074c4.181 5.328 6.705 12.13 6.705 19.521 0 8.704-3.5 16.59-9.17 22.328l-60.305 60.305 38.154 38.154 115.692-114.462c4.125-4.719 9.581-8.179 15.781-9.798l0.219-0.049c0.629-0.362 1.437-0.774 2.264-1.15l0.197-0.080c1.85-0.386 3.976-0.607 6.154-0.607s4.304 0.221 6.357 0.642l-0.203-0.035c2.358 0.674 4.4 1.512 6.322 2.544l-0.168-0.083c1.024 0.457 1.832 0.868 2.619 1.312l-0.157-0.082c2.348 1.078 4.37 2.311 6.227 3.746l-0.073-0.054c0.426 0.404 0.827 0.805 1.217 1.217l0.013 0.014c1.834 1.474 3.449 3.089 4.876 4.862l0.047 0.061c3.075 4.78 4.902 10.616 4.902 16.879 0 10.133-4.783 19.149-12.215 24.914l-0.072 0.054-115.692 114.462 39.385 39.385 60.308-60.308c5.758-5.802 13.735-9.393 22.552-9.393 2.477 0 4.887 0.283 7.201 0.82l-0.214-0.042c2.359 0.676 4.401 1.514 6.324 2.545l-0.17-0.083c1.026 0.458 1.833 0.869 2.62 1.313l-0.159-0.082c1.856 1.138 3.466 2.357 4.947 3.714l-0.024-0.021c6.693 5.855 10.897 14.412 10.897 23.95 0 8.951-3.702 17.037-9.658 22.811l-0.008 0.008-60.308 59.077 75.077 75.077z" />
<glyph unicode="&#xe930;" glyph-name="Search" d="M393.846 952.615c-213.465 0-386.462-172.997-386.462-386.462s172.997-386.462 386.462-386.462c90.189 0 173.019 31.921 238.769 83.692l34.462-34.462c-14.422-27.176-9.382-62.003 13.538-84.923l180.923-182.154c28.081-28.121 74.033-28.121 102.154 0l34.462 34.462c28.081 28.121 28.081 74.073 0 102.154l-182.154 180.923c-23.008 23.008-57.664 27.003-84.923 12.308l-34.462 34.462c52.14 65.873 83.692 149.455 83.692 240 0 213.465-172.997 386.462-386.462 386.462zM393.846 881.231c174.001 0 315.077-141.076 315.077-315.077s-141.076-315.077-315.077-315.077c-174.001 0-315.077 141.076-315.077 315.077s141.076 315.077 315.077 315.077zM194.462 665.846c-20.362-32.926-32-71.719-32-113.231 0-119.217 96.207-215.385 215.385-215.385 46.041 0 89.216 14.848 124.308 39.385-9.413-1.024-19.889-1.231-29.538-1.231-154.151 0-278.154 123.963-278.154 278.154 0 4.096-0.197 8.212 0 12.308z" />
<glyph unicode="&#xe931;" glyph-name="Security-Checked" d="M930.777 761.974c-7.877 8.94-18.944 14.1-30.602 14.415-90.388 2.363-204.761 99.013-280.379 136.94-46.71 23.355-77.548 38.754-100.706 42.811-2.402 0.315-4.726 0.551-7.089 0.551s-4.687-0.236-7.089-0.591c-23.158-4.057-53.996-19.456-100.667-42.811-75.618-37.888-189.991-134.538-280.379-136.901-11.658-0.315-22.764-5.514-30.641-14.415-7.956-8.901-12.052-20.756-11.461-32.847 19.417-394.752 161.004-639.055 409.442-781.036 6.459-3.663 13.627-5.553 20.756-5.553s14.297 1.89 20.795 5.553c248.438 141.982 389.986 386.284 409.442 781.036 0.63 12.091-3.466 23.946-11.422 32.847zM733.223 606.72l-209.644-309.366c-7.522-11.106-19.338-18.471-31.035-18.471-11.737 0-24.773 6.42-33.004 14.651l-147.771 147.81c-10.043 10.082-10.043 26.427 0 36.47l36.51 36.588c10.082 10.004 26.466 10.004 36.47 0l96.098-96.098 166.951 246.43c7.956 11.737 24.064 14.769 35.84 6.814l42.732-28.987c11.737-7.995 14.809-24.064 6.853-35.84z" />
<glyph unicode="&#xe932;" glyph-name="Sent" d="M0 881.231v-334.769l590.769-98.462-590.769-98.462v-334.769l1024 433.231-1024 433.231z" />
<glyph unicode="&#xe933;" glyph-name="Settings" d="M451.692 921.846l-22.154-140.308c-33.634-8.271-65.861-20.785-94.769-38.154l-115.692 82.462-83.692-83.692 81.231-115.692c-17.526-29.026-30.917-60.898-39.385-94.769l-139.077-23.385v-118.154l139.077-24.615c8.389-33.792 21.78-65.703 39.385-94.769l-82.462-115.692 83.692-83.692 115.692 81.231c28.987-17.408 61.095-29.844 94.769-38.154l23.385-140.308h118.154l25.846 140.308c33.516 8.468 64.788 21.898 93.538 39.385l116.923-82.462 83.692 83.692-83.692 115.692c17.25 28.751 31.114 60.101 39.385 93.538l140.308 25.846v118.154l-140.308 23.385c-8.35 33.438-22.134 64.788-39.385 93.538l82.462 116.923-83.692 83.692-115.692-83.692c-28.83 17.447-61.095 30.996-94.769 39.385l-24.615 140.308h-118.154zM512 705.231c141.942 0 257.231-115.289 257.231-257.231s-115.289-257.231-257.231-257.231c-141.942 0-257.231 115.328-257.231 257.231s115.289 257.231 257.231 257.231zM512 642.462c-107.047 0-194.462-87.414-194.462-194.462s87.414-194.462 194.462-194.462c107.047 0 194.462 87.414 194.462 194.462s-87.414 194.462-194.462 194.462zM510.769 529.231c45.135 0 82.462-36.057 82.462-81.231 0-45.135-37.327-81.231-82.462-81.231s-81.231 36.096-81.231 81.231c0 45.174 36.096 81.231 81.231 81.231z" />
<glyph unicode="&#xe934;" glyph-name="Shuffle" d="M780.308 960c-5.46-0.251-11.215-2.028-16-4.923-9.649-5.75-16-15.97-16-27.077v-86.154h-39.385c-26.486 0-58.274-3.767-87.385-19.692s-51.268-39.714-71.385-66.462c-30.175-40.122-67.164-102.838-115.692-184.615 3.794 8.91 5.999 19.274 5.999 30.153 0 17.876-5.954 34.361-15.987 47.581l0.142-0.195c-40.229 66.809-65.201 108.824-99.692 142.769s-87.794 50.462-128 50.462h-118.154c-1.102 0.055-2.394 0.087-3.692 0.087s-2.59-0.031-3.873-0.094l0.181 0.007c-41.94-2.018-75.179-36.512-75.179-78.77 0-43.551 35.305-78.856 78.856-78.856 1.304 0 2.601 0.032 3.89 0.094l-0.182-0.007h118.154c19.698 0 6.341 4.563 17.231-6.154s37.137-45.719 76.308-110.769c13.027-26.598 39.898-44.589 70.972-44.589 24.376 0 46.166 11.071 60.616 28.46l0.104 0.129c-12.99-21.851-21.323-36.887-36.923-62.769-83.226-138.076-129.651-218.136-156.308-253.538-13.328-17.701-19.241-21.907-19.692-22.154s0.643-1.231-12.308-1.231h-118.154c-0.331 0.005-0.722 0.008-1.114 0.008-43.507 0-78.777-35.27-78.777-78.777s35.27-78.777 78.777-78.777c0.392 0 0.783 0.003 1.173 0.009l-0.059-0.001h118.154c26.434 0 58.316 3.773 87.385 19.692s51.251 39.722 71.385 66.462c40.267 53.479 82.615 130.524 164.923 267.077 83.237 138.095 128.464 218.153 155.077 253.538 13.306 17.693 20.484 21.914 20.923 22.154s-0.749 1.231 12.308 1.231h39.385v-86.154c0-11.067 6.311-21.327 16-27.077 5.159-3.19 11.284-4.923 17.231-4.923 5.002 0 10.161 1.408 14.769 3.692l206.769 164.923c10.004 9.452 18.462 16.177 18.462 28.308 0.039 12.052-7.276 18.383-18.462 28.308l-206.769 164.923c-5.002 2.56-10.54 3.943-16 3.692zM780.308 329.846c-5.46-0.251-11.215-2.028-16-4.923-9.649-5.75-16-15.97-16-27.077v-86.154h-39.385c-17.729 0-8.299-3.025-14.769 2.462s-26.176 29.194-55.385 76.308c-14.009 23.109-39.025 38.314-67.591 38.314-1.768 0-3.522-0.058-5.26-0.173l0.236 0.012c-41.254-2.761-73.671-36.901-73.671-78.611 0-15.577 4.521-30.097 12.322-42.321l-0.189 0.318c31.444-50.718 54.028-84.945 87.385-113.231s80.971-40.615 116.923-40.615h39.385v-86.154c0-11.067 6.311-21.327 16-27.077 5.159-3.19 11.284-4.923 17.231-4.923 5.002 0 10.161 1.408 14.769 3.692l206.769 164.923c10.004 9.452 18.462 16.177 18.462 28.308 0.039 12.052-7.276 18.383-18.462 28.308l-206.769 164.923c-5.002 2.56-10.54 3.943-16 3.692z" />
<glyph unicode="&#xe935;" glyph-name="Inbox" d="M212.923 841.846c-51.2 0-94.375-34.231-112-81.231v-1.231l-98.462-299.077-2.462-6.154v-242.462c0-86.646 70.892-157.538 157.538-157.538h708.923c86.646 0 157.538 70.892 157.538 157.538v242.462l-2.462 6.154-102.154 300.308c-16.614 44.305-59.050 81.231-112 81.231h-594.462zM212.923 763.077h594.462c17.942 0 31.138-10.828 38.154-29.538l98.462-285.538h-313.846c0-66.954-51.2-118.154-118.154-118.154s-118.154 51.2-118.154 118.154h-313.846l94.769 285.538c6.006 16.016 26.338 29.538 38.154 29.538z" />
<glyph unicode="&#xe936;" glyph-name="Inspection" d="M512 960c-27.569 0-47.508-11.569-55.385-23.385-3.938-3.938-7.138-12.062-11.077-16h-51.692c-43.323 0-78.769-35.446-78.769-78.769h-78.769c-66.954 0-118.154-51.2-118.154-118.154v-669.538c0-66.954 51.2-118.154 118.154-118.154h551.385c66.954 0 118.154 51.2 118.154 118.154v669.538c0 66.954-51.2 118.154-118.154 118.154h-78.769c0 43.323-35.446 78.769-78.769 78.769h-51.692c-3.938 3.938-7.138 12.062-11.077 16-7.877 11.815-27.815 23.385-55.385 23.385zM393.846 841.846h236.308v-78.769h-236.308v78.769zM236.308 723.692h91.077c11.815-23.631 38.892-39.385 66.462-39.385h236.308c27.569 0 54.646 15.754 66.462 39.385h91.077v-669.538h-551.385v669.538zM652.308 539.077c-7.385 0-14.523-2.708-18.462-8.615l-173.538-184.615-66.462 62.769c-11.815 11.815-31.508 11.815-39.385 0l-27.077-27.077c-11.815-11.815-11.815-31.508 0-39.385l109.538-103.385c15.754-15.754 39.631-10.831 55.385 4.923l212.923 227.692c7.877 7.877 8.123 23.877-3.692 35.692l-28.308 23.385c-5.908 5.908-13.538 8.615-20.923 8.615z" />
<glyph unicode="&#xe937;" glyph-name="Integrated-Circuit" d="M275.692 881.231c-43.481 0-78.769-35.289-78.769-78.769v-708.923c0-43.481 35.289-78.769 78.769-78.769h472.615c43.481 0 78.769 35.289 78.769 78.769v708.923c0 43.481-35.289 78.769-78.769 78.769h-472.615zM393.846 804.923c44.583 0 81.231-36.647 81.231-81.231s-36.647-81.231-81.231-81.231c-44.583 0-81.231 36.647-81.231 81.231s36.647 81.231 81.231 81.231zM96 802.462c-9.649 0-17.231-7.582-17.231-17.231v-22.154h-61.538c-9.649 0-17.231-7.582-17.231-17.231v-44.308c0-9.689 7.582-17.231 17.231-17.231h61.538v-22.154c0-9.649 7.582-17.231 17.231-17.231h44.308c9.689 0 17.231 7.582 17.231 17.231v123.077c0 9.649-7.582 17.231-17.231 17.231h-44.308zM883.692 802.462c-9.649 0-17.231-7.582-17.231-17.231v-123.077c0-9.649 7.542-17.231 17.231-17.231h44.308c9.649 0 17.231 7.582 17.231 17.231v22.154h61.538c9.649 0 17.231 7.542 17.231 17.231v44.308c0 9.649-7.542 17.231-17.231 17.231h-61.538v22.154c0 9.649-7.542 17.231-17.231 17.231h-44.308zM96 526.769c-9.649 0-17.231-7.582-17.231-17.231v-22.154h-61.538c-9.649 0-17.231-7.582-17.231-17.231v-44.308c0-9.689 7.582-17.231 17.231-17.231h61.538v-22.154c0-9.649 7.582-17.231 17.231-17.231h44.308c9.689 0 17.231 7.582 17.231 17.231v123.077c0 9.689-7.582 17.231-17.231 17.231h-44.308zM883.692 526.769c-9.649 0-17.231-7.542-17.231-17.231v-123.077c0-9.649 7.542-17.231 17.231-17.231h44.308c9.649 0 17.231 7.582 17.231 17.231v22.154h61.538c9.649 0 17.231 7.542 17.231 17.231v44.308c0 9.649-7.542 17.231-17.231 17.231h-61.538v22.154c0 9.649-7.542 17.231-17.231 17.231h-44.308zM96 251.077c-9.649 0-17.231-7.582-17.231-17.231v-22.154h-61.538c-9.649 0-17.231-7.582-17.231-17.231v-44.308c0-9.689 7.582-17.231 17.231-17.231h61.538v-22.154c0-9.649 7.582-17.231 17.231-17.231h44.308c9.689 0 17.231 7.582 17.231 17.231v123.077c0 9.689-7.582 17.231-17.231 17.231h-44.308zM883.692 251.077c-9.649 0-17.231-7.542-17.231-17.231v-123.077c0-9.649 7.542-17.231 17.231-17.231h44.308c9.649 0 17.231 7.582 17.231 17.231v22.154h61.538c9.649 0 17.231 7.542 17.231 17.231v44.308c0 9.649-7.542 17.231-17.231 17.231h-61.538v22.154c0 9.649-7.542 17.231-17.231 17.231h-44.308z" />
<glyph unicode="&#xe938;" glyph-name="Invisible" d="M512 717.538c-197.711 0-382.513-98.235-493.538-262.154-20.795-30.72-12.18-71.591 18.462-92.308 11.54-7.838 23.966-12.308 36.923-12.308 21.504 0 43.658 10.437 56.615 29.538 4.129 6.093 9.154 11.376 13.538 17.231 52.729-152.829 197.28-262.154 368-262.154 170.751 0 315.291 109.334 368 262.154 4.379-5.856 9.415-11.136 13.538-17.231 20.677-30.641 62.818-37.947 93.538-17.231 30.681 20.756 39.217 61.666 18.462 92.308-110.986 163.998-295.788 262.154-493.538 262.154zM512 574.769c69.75 0 126.769-56.98 126.769-126.769s-57.019-126.769-126.769-126.769c-69.75 0-126.769 57.019-126.769 126.769s57.019 126.769 126.769 126.769zM668.308 556.308c65.754-23.614 124.356-62.565 173.538-113.231-36.731-147.992-170.632-258.462-329.846-258.462s-293.115 110.47-329.846 258.462c48.911 50.336 108.271 88.343 173.538 112-21.032-30.529-33.231-67.188-33.231-107.077 0-104.724 84.854-189.538 189.538-189.538s189.538 84.815 189.538 189.538c0 40.227-11.871 77.631-33.231 108.308z" />
<glyph unicode="&#xe939;" glyph-name="Keep-Dry" d="M512 960c0 0-39.385-49.625-39.385-78.769 0-21.74 17.644-39.385 39.385-39.385s39.385 17.644 39.385 39.385c0 29.145-39.385 78.769-39.385 78.769zM196.923 920.615c0 0-39.385-49.625-39.385-78.769 0-21.74 17.644-39.385 39.385-39.385s39.385 17.644 39.385 39.385c0 29.145-39.385 78.769-39.385 78.769zM827.077 920.615c0 0-39.385-49.625-39.385-78.769 0-21.74 17.644-39.385 39.385-39.385s39.385 17.644 39.385 39.385c0 29.145-39.385 78.769-39.385 78.769zM354.462 881.231c0 0-39.385-49.625-39.385-78.769 0-21.74 17.644-39.385 39.385-39.385s39.385 17.644 39.385 39.385c0 29.145-39.385 78.769-39.385 78.769zM669.538 881.231c0 0-39.385-49.625-39.385-78.769 0-21.74 17.644-39.385 39.385-39.385s39.385 17.644 39.385 39.385c0 29.145-39.385 78.769-39.385 78.769zM504.615 795.077c-14.204-3.255-24.64-15.785-24.64-30.753 0-0.439 0.009-0.875 0.027-1.31l-0.002 0.062v-40.615c-374.412-18.177-401.231-353.231-401.231-353.231s55.375 44.308 137.846 44.308c82.471 0 137.846-44.308 137.846-44.308s55.484 33.123 125.538 41.846v-356.923c0-26.507-20.262-46.769-46.769-46.769s-46.769 20.262-46.769 46.769c0 17.673-14.327 32-32 32s-32-14.327-32-32v0c0-60.533 50.236-110.769 110.769-110.769s110.769 50.236 110.769 110.769v356.923c70.055-8.723 125.538-41.846 125.538-41.846s53.878 44.308 137.846 44.308c83.968 0 137.846-44.308 137.846-44.308s-26.818 335.054-401.231 353.231v40.615c0.006 0.229 0.009 0.499 0.009 0.769 0 17.403-14.108 31.511-31.511 31.511-1.478 0-2.932-0.102-4.356-0.299l0.165 0.019c-0.552 0.034-1.197 0.054-1.846 0.054s-1.294-0.020-1.934-0.058l0.088 0.004zM78.769 763.077c0 0-39.385-49.625-39.385-78.769 0-21.74 17.644-39.385 39.385-39.385s39.385 17.644 39.385 39.385c0 29.145-39.385 78.769-39.385 78.769zM945.231 763.077c0 0-39.385-49.625-39.385-78.769 0-21.74 17.644-39.385 39.385-39.385s39.385 17.644 39.385 39.385c0 29.145-39.385 78.769-39.385 78.769z" />
<glyph unicode="&#xe93a;" glyph-name="Key-Security" d="M315.077 952.615c-169.905 0-307.692-137.748-307.692-307.692 0-169.905 137.748-307.692 307.692-307.692s307.692 137.787 307.692 307.692c0 169.945-137.787 307.692-307.692 307.692zM216.615 845.538c56.596 0 102.154-45.598 102.154-102.154 0-56.635-45.558-102.154-102.154-102.154s-102.154 45.519-102.154 102.154c0 56.556 45.558 102.154 102.154 102.154zM653.538 502.154c-10.713-25.442-24.625-49.211-40.615-71.385l307.692-307.692c13.43-13.47 13.47-35.761 0-49.231-13.43-13.43-35.801-13.43-49.231 0l-304 305.231c-37.849-35.801-83.742-64.020-134.154-81.231v-54.154c0-17.329 14.631-32 32-32h86.154v-86.154c0-17.329 14.631-32 32-32h86.154v-86.154c0-17.329 14.631-32 32-32h87.385l22.154-22.154c13.47-13.47 148.401-20.175 182.154 13.538 33.753 33.792 26.969 168.724 13.538 182.154l-353.231 353.231z" />
<glyph unicode="&#xe93b;" glyph-name="Keyboard" d="M905.846 723.692h-787.692c-65.26 0-118.154-52.933-118.154-118.154v-393.846c0-65.221 52.894-118.154 118.154-118.154h787.692c65.26 0 118.154 52.933 118.154 118.154v393.846c0 65.221-52.894 118.154-118.154 118.154zM787.692 526.769h-78.769v78.769h78.769v-78.769zM905.846 526.769h-78.769v78.769h78.769v-78.769zM551.385 526.769h-78.769v78.769h78.769v-78.769zM669.538 526.769h-78.769v78.769h78.769v-78.769zM433.231 526.769h-78.769v78.769h78.769v-78.769zM196.923 526.769h-78.769v78.769h78.769v-78.769zM315.077 526.769h-78.769v78.769h78.769v-78.769zM787.692 211.692h-551.385v78.769h551.385v-78.769zM827.077 369.231h-78.769v78.769h78.769v-78.769zM590.769 369.231h-78.769v78.769h78.769v-78.769zM708.923 369.231h-78.769v78.769h78.769v-78.769zM472.615 369.231h-78.769v78.769h78.769v-78.769zM236.308 369.231h-78.769v78.769h78.769v-78.769zM354.462 369.231h-78.769v78.769h78.769v-78.769z" />
<glyph unicode="&#xe93c;" glyph-name="Last" d="M832 960h-640c-106.063 0-192-85.937-192-192v-640c0-106.063 85.937-192 192-192h640c106.063 0 192 85.937 192 192v640c0 106.063-85.937 192-192 192zM748.308 251.077c0-21.701-17.684-39.385-39.385-39.385h-78.769c-21.701 0-39.385 17.684-39.385 39.385v142.494l-219.333-174.277c-5.474-2.678-11.382-4.096-17.29-4.096-7.050 0-14.021 1.93-20.165 5.671-11.422 6.853-18.905 19.102-18.905 32.177v389.868c0 13.154 7.483 25.364 18.865 32.177 11.343 6.892 25.561 7.522 37.494 1.536l219.333-174.198v142.494c0 21.701 17.684 39.385 39.385 39.385h78.769c21.701 0 39.385-17.684 39.385-39.385v-393.846z" />
<glyph unicode="&#xe93d;" glyph-name="Like" d="M703.764 806.833c-82.55 0-153.088-58.841-191.842-99.407-38.754 40.566-109.135 99.407-191.646 99.407-142.218 0-241.506-99.131-241.506-241.034 0-156.357 123.313-257.418 242.609-355.17 56.32-46.198 114.609-93.932 159.311-146.865 7.522-8.862 18.55-13.982 30.129-13.982h2.284c11.618 0 22.607 5.159 30.090 13.982 44.78 52.933 103.030 100.706 159.39 146.865 119.257 97.713 242.649 198.774 242.649 355.17 0 141.903-99.289 241.034-241.467 241.034z" />
<glyph unicode="&#xe93e;" glyph-name="LOL" d="M512 952.615c-278.686 0-504.615-225.93-504.615-504.615s225.93-504.615 504.615-504.615c278.686 0 504.615 225.93 504.615 504.615s-225.93 504.615-504.615 504.615zM512 873.846c234.811 0 425.846-191.035 425.846-425.846s-191.035-425.846-425.846-425.846c-234.811 0-425.846 191.035-425.846 425.846s191.035 425.846 425.846 425.846zM354.462 605.538c-43.481 0-118.154-54.154-118.154-78.769s74.673 0 118.154 0c43.481 0 78.769-27.687 78.769 0s-35.289 78.769-78.769 78.769zM669.538 605.538c-43.481 0-78.769-51.082-78.769-78.769s35.289 0 78.769 0c43.481 0 118.154-24.615 118.154 0s-74.673 78.769-118.154 78.769zM242.462 369.231c0-127.094 90.772-269.538 269.538-269.538s269.538 142.444 269.538 269.538c0 0-86.754-45.538-269.538-45.538s-269.538 45.538-269.538 45.538z" />
<glyph unicode="&#xe93f;" glyph-name="Luggage-Trolley" d="M590.769 841.846c-43.050 0-78.769-35.719-78.769-78.769v-39.385h-196.923c-21.74 0-39.385-17.644-39.385-39.385v-393.846c0-21.74 17.644-39.385 39.385-39.385h669.538c21.74 0 39.385 17.644 39.385 39.385v393.846c0 21.74-17.644 39.385-39.385 39.385h-196.923v39.385c0 43.050-35.719 78.769-78.769 78.769h-118.154zM32 802.462c-20.2-1.95-35.865-18.838-35.865-39.385 0-21.847 17.71-39.557 39.557-39.557 1.3 0 2.586 0.063 3.853 0.185l-0.161-0.013h39.385c19.882 0 25.982-4.256 30.769-9.846s8.615-16.255 8.615-29.538v-433.231c0-44.284 9.75-85.951 38.154-115.692s70.893-41.846 119.385-41.846h708.923c0.166-0.003 0.361-0.004 0.557-0.004 21.754 0 39.389 17.635 39.389 39.389s-17.635 39.389-39.389 39.389c-0.196 0-0.391-0.001-0.586-0.004h-708.894c-35.634 0-51.897 8.366-61.538 18.462s-17.231 27.634-17.231 60.308v433.231c0 27.204-6.806 56.328-27.077 80s-53.654 38.154-91.077 38.154h-39.385c-0.551 0.028-1.197 0.043-1.846 0.043s-1.295-0.016-1.937-0.047l0.090 0.003c-0.551 0.028-1.197 0.043-1.846 0.043s-1.295-0.016-1.937-0.047l0.091 0.003zM905.846 93.538c-43.503 0-78.769-35.266-78.769-78.769s35.266-78.769 78.769-78.769c43.503 0 78.769 35.266 78.769 78.769s-35.266 78.769-78.769 78.769zM275.692 93.538c-43.503 0-78.769-35.266-78.769-78.769s35.266-78.769 78.769-78.769c43.503 0 78.769 35.266 78.769 78.769s-35.266 78.769-78.769 78.769zM590.769 763.077h118.154v-39.385h-118.154v39.385z" />
<glyph unicode="&#xe940;" glyph-name="calculator" d="M384 896h-320c-35.2 0-64-28.8-64-64v-320c0-35.2 28.796-64 64-64h320c35.2 0 64 28.8 64 64v320c0 35.2-28.8 64-64 64zM384 640h-320v64h320v-64zM896 896h-320c-35.204 0-64-28.8-64-64v-832c0-35.2 28.796-64 64-64h320c35.2 0 64 28.8 64 64v832c0 35.2-28.8 64-64 64zM896 320h-320v64h320v-64zM896 512h-320v64h320v-64zM384 384h-320c-35.2 0-64-28.8-64-64v-320c0-35.2 28.796-64 64-64h320c35.2 0 64 28.8 64 64v320c0 35.2-28.8 64-64 64zM384 128h-128v-128h-64v128h-128v64h128v128h64v-128h128v-64z" />
<glyph unicode="&#xe941;" glyph-name="lifebuoy" d="M512 960c-282.77 0-512-229.23-512-512s229.23-512 512-512 512 229.23 512 512-229.23 512-512 512zM320 448c0 106.040 85.96 192 192 192s192-85.96 192-192-85.96-192-192-192-192 85.96-192 192zM925.98 276.524v0l-177.42 73.49c12.518 30.184 19.44 63.276 19.44 97.986s-6.922 67.802-19.44 97.986l177.42 73.49c21.908-52.822 34.020-110.73 34.020-171.476s-12.114-118.654-34.020-171.476v0zM683.478 861.98v0 0l-73.49-177.42c-30.184 12.518-63.276 19.44-97.988 19.44s-67.802-6.922-97.986-19.44l-73.49 177.422c52.822 21.904 110.732 34.018 171.476 34.018 60.746 0 118.654-12.114 171.478-34.020zM98.020 619.476l177.422-73.49c-12.518-30.184-19.442-63.276-19.442-97.986s6.922-67.802 19.44-97.986l-177.42-73.49c-21.906 52.822-34.020 110.73-34.020 171.476s12.114 118.654 34.020 171.476zM340.524 34.020l73.49 177.42c30.184-12.518 63.276-19.44 97.986-19.44s67.802 6.922 97.986 19.44l73.49-177.42c-52.822-21.904-110.73-34.020-171.476-34.020-60.744 0-118.654 12.114-171.476 34.020z" />
<glyph unicode="&#xe942;" glyph-name="phone" d="M704 320c-64-64-64-128-128-128s-128 64-192 128-128 128-128 192 64 64 128 128-128 256-192 256-192-192-192-192c0-128 131.5-387.5 256-512s384-256 512-256c0 0 192 128 192 192s-192 256-256 192z" />
<glyph unicode="&#xe943;" glyph-name="Maestro" d="M315.077 755.692c-169.945 0-307.692-137.748-307.692-307.692s137.748-307.692 307.692-307.692c74.973 0 143.541 26.825 196.923 71.385 53.382-44.56 121.95-71.385 196.923-71.385 169.945 0 307.692 137.748 307.692 307.692s-137.787 307.692-307.692 307.692c-74.956 0-143.538-26.825-196.923-71.385-53.382 44.56-121.95 71.385-196.923 71.385zM708.923 676.923c126.228 0 228.923-102.656 228.923-228.923s-102.695-228.923-228.923-228.923c-54.254 0-103.5 20.031-142.769 51.692 35.352 50.1 56.615 111.251 56.615 177.231s-21.263 127.131-56.615 177.231c39.27 31.653 88.515 51.692 142.769 51.692z" />
<glyph unicode="&#xe944;" glyph-name="Maintenance" d="M51.692 960l-51.692-51.692 91.077-157.538 59.077 8.615 360.615-360.615-30.769-29.538c-15.754-15.754-15.754-39.631 0-55.385l16-16c15.754-15.754 39.877-15.754 51.692 0l46.769-46.769c-3.938-23.631 0-51.692 19.692-71.385l212.923-211.692c43.323-43.323 114.215-43.323 157.538 0 51.2 47.262 50.708 117.908 7.385 161.231l-211.692 212.923c-19.692 19.692-47.754 27.569-71.385 19.692l-51.692 46.769c11.815 15.754 11.815 39.877 0 51.692l-14.769 14.769c-15.754 15.754-39.631 15.754-55.385 0l-25.846-25.846-360.615 360.615 8.615 59.077-157.538 91.077zM819.692 958.769c-77.646 6.462-180.677-45.046-228.923-89.846-59.297-59.297-49.621-136.846-2.462-211.692l-83.692-83.692 59.077-66.462c31.508 27.569 78.031 27.569 109.538 0l19.692-19.692 34.462 34.462c71.202-41.879 145.32-47.911 201.846 8.615 55.138 51.2 114.954 177.477 87.385 252.308l-110.769-114.462c-15.754-15.754-39.631-15.754-55.385 0l-114.462 114.462c-15.754 15.754-15.754 39.631 0 55.385l114.462 114.462c-9.846 3.446-19.677 5.231-30.769 6.154zM386.462 467.692l-142.769-142.769c-14.828 3.463-30.75 4.923-46.769 4.923-110.277 0-196.923-86.646-196.923-196.923s86.646-196.923 196.923-196.923c110.277 0 196.923 86.646 196.923 196.923 0 20.192-3.192 39.625-8.615 57.846l83.692 83.692-12.308 16c-31.508 31.508-31.262 79.262-3.692 110.769l-66.462 66.462zM691.692 288c4.923 0 9.6-0.985 13.538-4.923l232.615-232.615c7.877-7.877 7.877-20.431 0-28.308s-20.431-7.877-28.308 0l-232.615 232.615c-7.877 7.877-7.877 20.431 0 28.308 3.938 3.938 9.846 4.923 14.769 4.923zM224 235.077l75.077-75.077-27.077-102.154-102.154-27.077-75.077 75.077 27.077 102.154 102.154 27.077z" />
<glyph unicode="&#xe945;" glyph-name="Medical-Doctor" d="M512 960c-82.708 0-132.233-12.578-163.692-28.308-15.729-7.865-26.914-16.124-34.462-24.615s-12.308-20.923-12.308-20.923c-1.162-2.864-2.028-6.192-2.443-9.659l-0.018-0.187-20.923-269.538c-0.296-1.666 0.249-4.378 0-6.154l-2.462-27.077c-0.11-1.107-0.173-2.392-0.173-3.692s0.063-2.586 0.186-3.853l-0.013 0.161c0-129.969 106.338-236.308 236.308-236.308s236.308 106.338 236.308 236.308c0 2.453 0.042 3.829 0 6.154 0.003 0.183 0.005 0.399 0.005 0.615s-0.002 0.432-0.005 0.648v-0.032l-23.385 302.769c-0.434 3.654-1.3 6.982-2.555 10.111l0.094-0.265c0 0-4.76 12.432-12.308 20.923s-18.732 16.751-34.462 24.615c-31.459 15.729-80.985 28.308-163.692 28.308zM512 329.846c-259.938 0-472.615-122.338-472.615-232.615v-161.231h945.231v161.231c0 104.797-192.29 220.169-434.462 231.385-12.738 0.862-25.354 1.231-38.154 1.231zM512 881.231c74.831 0 112.197-11.791 128-19.692 5.268-2.634 5.934-3.672 7.385-4.923l16-201.846c-36.25-2.224-85.589-9.846-151.385-9.846s-115.135 7.622-151.385 9.846l16 201.846c1.451 1.251 2.117 2.289 7.385 4.923 15.803 7.901 53.169 19.692 128 19.692zM480 841.846v-46.769h-46.769v-64h46.769v-46.769h64v46.769h46.769v64h-46.769v46.769h-64zM393.846 241.231l100.923-226.462h-376.615v82.462c0 29.351 100.455 115.271 275.692 144zM630.154 241.231c175.238-28.729 275.692-114.649 275.692-144v-82.462h-376.615l100.923 226.462z" />
<glyph unicode="&#xe946;" glyph-name="Message-Outline" d="M118.154 802.462c-65.221 0-118.154-52.933-118.154-118.154v-472.615c0-65.221 52.933-118.154 118.154-118.154h787.692c65.221 0 118.154 52.933 118.154 118.154v472.615c0 65.221-52.933 118.154-118.154 118.154h-787.692zM118.154 723.692h787.692c21.701 0 39.385-17.684 39.385-39.385v-19.692l-433.231-233.846-433.231 233.846v19.692c0 21.701 17.684 39.385 39.385 39.385zM78.769 653.538l257.231-200.615-252.308-258.462 307.692 219.077 120.615-77.538 120.615 77.538 307.692-219.077-252.308 258.462 257.231 200.615v-441.846c0-6.393-2.203-11.885-4.923-17.231-6.513-12.802-19.153-22.154-34.462-22.154h-787.692c-15.308 0-27.949 9.352-34.462 22.154-2.72 5.346-4.923 10.838-4.923 17.231v441.846z" />
<glyph unicode="&#xe947;" glyph-name="Message" d="M905.846 802.462h-787.692c-66.954 0-118.154-51.2-118.154-118.154v-472.615c0-66.954 51.2-118.154 118.154-118.154h787.692c66.954 0 118.154 51.2 118.154 118.154v472.615c0 66.954-51.2 118.154-118.154 118.154zM937.354 195.938l-307.2 220.554-118.154-78.769-122.092 78.769-303.262-220.554 248.123 256-303.262 236.308 480.492-259.938 476.554 256-299.323-236.308 248.123-252.062z" />
<glyph unicode="&#xe948;" glyph-name="Mouse" d="M812.308 832c-23.667-1.287-46.936-7.338-67.692-17.231-55.349-26.38-101.478-73.171-136.615-108.308-7.184-5.823-11.739-14.648-11.739-24.536 0-17.403 14.108-31.511 31.511-31.511 9.888 0 18.712 4.555 24.49 11.68l0.046 0.059c34.613 34.613 78.32 75.197 119.385 94.769 20.532 9.786 39.090 14.114 56.615 12.308s35.547-8.462 55.385-28.308c33.445-33.445 35.333-61.658 20.923-100.923s-50.339-86.051-93.538-129.231c-41.34-41.34-72.235-79.868-86.154-120.615s-4.939-86.138 27.077-118.154c32.39-32.39 79.215-39.781 121.846-23.385s85.151 50.69 132.923 98.462c7.184 5.823 11.739 14.648 11.739 24.536 0 17.403-14.108 31.511-31.511 31.511-9.888 0-18.712-4.555-24.49-11.68l-0.046-0.059c-44.861-44.861-83.512-73.209-110.769-83.692s-38.071-8.698-55.385 8.615c-17.687 17.687-19.46 29.612-11.077 54.154s32.212 58.058 70.154 96c46.283 46.262 88.177 96.53 108.308 151.385s12.94 118.752-35.692 167.385c-28.152 28.164-60.041 43.444-92.308 46.769-8.067 0.831-15.496 0.429-23.385 0zM391.385 713.846c-60.51-3.402-119.818-28.761-166.154-75.077l-41.846-41.846 158.769-158.769 43.077 43.077c-12.446 25.009-8.566 56.665 12.308 77.538l43.077 43.077c20.913 20.874 52.49 24.793 77.538 12.308l45.538 45.538c-50.53 39.010-111.798 57.556-172.308 54.154zM610.462 614.154l-48-48c9.216-23.906 4.529-52.047-14.769-71.385l-43.077-43.077c-19.338-19.298-47.478-23.985-71.385-14.769l-45.538-45.538 160-158.769 41.846 41.846c92.79 92.79 99.338 238.631 20.923 339.692zM488.615 582.154c-7.326 0-14.454-3.417-19.692-8.615l-43.077-43.077c-10.713-10.713-10.713-28.672 0-39.385l11.077-11.077c5.238-5.238 12.327-8.615 19.692-8.615s14.454 3.417 19.692 8.615l43.077 43.077c5.238 5.238 8.615 12.367 8.615 19.692s-3.417 14.494-8.615 19.692l-11.077 11.077c-5.159 5.238-12.288 8.615-19.692 8.615zM145.231 558.769l-59.077-57.846c-100.667-100.667-100.667-264.871 0-365.538 100.667-100.628 263.719-100.628 364.308 0l59.077 59.077-364.308 364.308z" />
<glyph unicode="&#xe949;" glyph-name="My-Topic" d="M512 952.615c-275.7 0-504.615-199.457-504.615-450.462 0-118.072 55.411-221.864 137.846-301.538-3.213-45.619-26.138-72.924-57.846-99.692-17.026-14.373-35.914-27.767-52.923-44.308s-34.462-39.044-34.462-70.154c0-0.005 0-0.011 0-0.017 0-18.253 12.416-33.607 29.264-38.075l0.275-0.062c73.974-19.847 153.593-5.228 226.462 20.923 65.607 23.545 121.009 58.428 164.923 92.308 29.724-4.904 59.64-8.615 91.077-8.615 275.704 0 504.615 198.261 504.615 449.231s-228.92 450.462-504.615 450.462zM512 873.846c238.116 0 425.846-168.951 425.846-371.692s-187.738-370.462-425.846-370.462c-30.925 0-60.553 1.862-89.846 7.385-2.677 0.649-5.75 1.021-8.91 1.021-9.217 0-17.694-3.166-24.404-8.469l0.083 0.063c-35.577-29.874-95.229-65.812-158.769-88.615-39.143-14.048-78.793-20.479-115.692-22.154 8.272 6.675 14.828 11.43 24.615 19.692 39.637 33.461 87.385 87.275 87.385 168.615-0.056 11.773-5.268 22.317-13.492 29.499l-0.046 0.040c-78.745 68.004-126.769 160.638-126.769 263.385 0 202.785 187.734 371.692 425.846 371.692zM512 760.615c-57.698 0-107.077-39.788-107.077-114.462 0-48.719 22.991-97.477 52.923-128 11.658-30.602-9.127-42.693-13.538-44.308-60.377-21.819-131.692-61.578-131.692-100.923v-14.769c0-53.563 103.286-65.231 199.385-65.231 96.256 0 199.385 11.668 199.385 65.231v14.769c0.039 40.448-70.745 79.97-134.154 100.923-2.914 0.945-21.228 9.61-9.846 44.308 29.735 30.641 51.692 79.439 51.692 128 0 74.673-49.378 114.462-107.077 114.462z" />
<glyph unicode="&#xe94a;" glyph-name="Name" d="M652.327 333.785c-6.262 2.048-45.844 19.889-21.11 95.074h-0.354c64.473 66.402 113.743 173.253 113.743 278.449 0 161.753-107.559 246.548-232.566 246.548-125.086 0-232.054-84.756-232.054-246.548 0-105.63 48.994-212.913 113.861-279.158 25.285-66.324-19.929-90.939-29.381-94.405-130.914-47.34-284.514-133.632-284.514-218.821 0-23.001 0-9.058 0-31.941 0-116.066 225.044-142.454 433.31-142.454 208.581 0 430.789 26.388 430.789 142.454 0 22.843 0 8.94 0 31.941 0 87.749-154.348 173.371-291.722 218.86z" />
<glyph unicode="&#xe94b;" glyph-name="News" d="M665.846 882.462c-1.938-0.356-3.592-0.783-5.202-1.31l0.279 0.079h-621.538c-0.551 0.028-1.197 0.043-1.846 0.043s-1.295-0.016-1.937-0.047l0.090 0.003c-20.105-1.951-35.693-18.762-35.693-39.215 0-0.060 0-0.119 0-0.179v0.009-628.923c0-93.149 51.937-150.399 100.923-174.769s96-23.385 96-23.385h630.154c0 0 3.339 0.001 3.692 0 0.183-0.003 0.399-0.005 0.615-0.005s0.432 0.002 0.648 0.005h-0.033c6.881 0.014 46.328 1.022 91.077 23.385 46.748 23.362 95.611 77.148 99.692 162.462 0.012 0.367 0.019 0.798 0.019 1.231s-0.007 0.864-0.021 1.293l0.002-0.063c0.032 0.856 1.208 1.599 1.231 2.462 0.077 0.921 0.12 1.994 0.12 3.077s-0.044 2.156-0.129 3.217l0.009-0.14c0.028 0.551 0.043 1.197 0.043 1.846s-0.016 1.295-0.047 1.937l0.003-0.090v428.308c0.003 0.183 0.005 0.399 0.005 0.615s-0.002 0.432-0.005 0.648v-0.033c0 0-0.152 27.652-14.769 56.615-13.275 26.304-45.159 55.152-89.846 60.308-4.021 1.539-8.671 2.44-13.529 2.462h-196.932v70.154c0.11 1.107 0.173 2.392 0.173 3.692s-0.063 2.586-0.186 3.853l0.013-0.161c0.049 0.736 0.077 1.595 0.077 2.462s-0.028 1.726-0.083 2.578l0.006-0.116c0.012 0.367 0.019 0.798 0.019 1.231s-0.007 0.864-0.021 1.293l0.002-0.063c0.003 0.183 0.005 0.399 0.005 0.615s-0.002 0.432-0.005 0.648v-0.033c-0.485 1.065-0.896 1.873-1.333 2.664l0.103-0.202c0.003 0.183 0.005 0.399 0.005 0.615s-0.002 0.432-0.005 0.648v-0.033c-0.427 1.532-0.847 2.759-1.324 3.958l0.093-0.266c-0.845 1.43-1.658 2.635-2.533 3.791l0.071-0.098c-1.146 2.357-2.375 4.374-3.768 6.262l0.076-0.108c-1.057 0.804-2.262 1.616-3.512 2.362l-0.18 0.1c-1.512 1.799-3.124 3.411-4.863 4.874l-0.060 0.049c-0.183 0.003-0.399 0.005-0.615 0.005s-0.432-0.002-0.648-0.005h0.033c-3.856 2.763-8.382 4.886-13.268 6.097l-0.271 0.057c-2.954 0.794-6.346 1.25-9.844 1.25-0.433 0-0.865-0.007-1.295-0.021l0.063 0.002zM78.769 802.462h551.385v-68.923c-0.521-2.405-0.82-5.168-0.82-8s0.299-5.595 0.866-8.258l-0.046 0.258v-504.615c0-50.417 16.009-89.612 38.154-119.385h-471.385c0 0-17.889-0.084-39.385 6.154-7.165 2.079-14.708 4.911-22.154 8.615-29.784 14.817-56.615 37.233-56.615 104.615v589.538zM157.538 723.692c-21.701 0-39.385-17.684-39.385-39.385v-78.769c0-21.701 17.684-39.385 39.385-39.385h393.846c21.701 0 39.385 17.684 39.385 39.385v78.769c0 21.701-17.684 39.385-39.385 39.385h-393.846zM708.923 685.538h86.154c-7.347-21.584-7.385-39.385-7.385-39.385-0.003-0.183-0.005-0.399-0.005-0.615s0.002-0.432 0.005-0.648v0.033-393.846c-0.003-0.166-0.004-0.361-0.004-0.557 0-21.754 17.635-39.389 39.389-39.389s39.389 17.635 39.389 39.389c0 0.196-0.001 0.391-0.004 0.586v-0.029 393.846c0.087 1.114 0.985 10.824 6.154 20.923 5.449 10.649 8.216 18.462 33.231 18.462 24.827 0 27.693-7.489 33.231-18.462 5.265-10.432 6.071-21.049 6.154-22.154 0.004-0.057 0-1.231 0-1.231v-430.769c-0.028-0.551-0.043-1.197-0.043-1.846s0.016-1.295 0.047-1.937l-0.003 0.090c-1.073-62.541-27.255-83.789-56.615-98.462-29.983-14.984-61.538-16-61.538-16s-31.517 0.828-61.538 16c-30.021 15.172-56.615 37.445-56.615 103.385v472.615zM146.462 487.385c-19.454-2.813-34.234-19.373-34.234-39.385 0-21.966 17.807-39.772 39.772-39.772 1.954 0 3.874 0.141 5.753 0.413l-0.214-0.025h118.154c0.166-0.003 0.361-0.004 0.557-0.004 21.754 0 39.389 17.635 39.389 39.389s-17.635 39.389-39.389 39.389c-0.196 0-0.391-0.001-0.586-0.004h-118.125c-0.551 0.028-1.197 0.043-1.846 0.043s-1.295-0.016-1.937-0.047l0.090 0.003c-0.551 0.028-1.197 0.043-1.846 0.043s-1.295-0.016-1.937-0.047l0.091 0.003c-0.551 0.027-1.197 0.043-1.846 0.043s-1.295-0.016-1.937-0.047l0.091 0.003zM382.769 487.385c-19.454-2.813-34.234-19.373-34.234-39.385 0-21.966 17.807-39.772 39.772-39.772 1.954 0 3.874 0.141 5.753 0.413l-0.214-0.025h157.538c0.166-0.003 0.361-0.004 0.557-0.004 21.754 0 39.389 17.635 39.389 39.389s-17.635 39.389-39.389 39.389c-0.196 0-0.391-0.001-0.586-0.004h-157.509c-0.551 0.028-1.197 0.043-1.846 0.043s-1.295-0.016-1.937-0.047l0.090 0.003c-0.551 0.028-1.197 0.043-1.846 0.043s-1.295-0.016-1.937-0.047l0.091 0.003c-0.551 0.027-1.197 0.043-1.846 0.043s-1.295-0.016-1.937-0.047l0.091 0.003zM146.462 369.231c-19.454-2.813-34.234-19.373-34.234-39.385 0-21.966 17.807-39.772 39.772-39.772 1.954 0 3.874 0.141 5.753 0.413l-0.214-0.025h118.154c0.166-0.003 0.361-0.004 0.557-0.004 21.754 0 39.389 17.635 39.389 39.389s-17.635 39.389-39.389 39.389c-0.196 0-0.391-0.001-0.586-0.004h-118.125c-0.551 0.028-1.197 0.043-1.846 0.043s-1.295-0.016-1.937-0.047l0.090 0.003c-0.551 0.028-1.197 0.043-1.846 0.043s-1.295-0.016-1.937-0.047l0.091 0.003c-0.551 0.027-1.197 0.043-1.846 0.043s-1.295-0.016-1.937-0.047l0.091 0.003zM382.769 369.231c-19.454-2.813-34.234-19.373-34.234-39.385 0-21.966 17.807-39.772 39.772-39.772 1.954 0 3.874 0.141 5.753 0.413l-0.214-0.025h157.538c0.166-0.003 0.361-0.004 0.557-0.004 21.754 0 39.389 17.635 39.389 39.389s-17.635 39.389-39.389 39.389c-0.196 0-0.391-0.001-0.586-0.004h-157.509c-0.551 0.028-1.197 0.043-1.846 0.043s-1.295-0.016-1.937-0.047l0.090 0.003c-0.551 0.028-1.197 0.043-1.846 0.043s-1.295-0.016-1.937-0.047l0.091 0.003c-0.551 0.027-1.197 0.043-1.846 0.043s-1.295-0.016-1.937-0.047l0.091 0.003zM166.154 251.077c-19.454-2.813-34.234-19.373-34.234-39.385 0-21.966 17.807-39.772 39.772-39.772 1.954 0 3.874 0.141 5.753 0.413l-0.214-0.025h98.462c0.166-0.003 0.361-0.004 0.557-0.004 21.754 0 39.389 17.635 39.389 39.389s-17.635 39.389-39.389 39.389c-0.196 0-0.391-0.001-0.586-0.004h-98.433c-0.551 0.028-1.197 0.043-1.846 0.043s-1.295-0.016-1.937-0.047l0.090 0.003c-0.551 0.028-1.197 0.043-1.846 0.043s-1.295-0.016-1.937-0.047l0.091 0.003c-0.551 0.027-1.197 0.043-1.846 0.043s-1.295-0.016-1.937-0.047l0.091 0.003zM382.769 251.077c-19.454-2.813-34.234-19.373-34.234-39.385 0-21.966 17.807-39.772 39.772-39.772 1.954 0 3.874 0.141 5.753 0.413l-0.214-0.025h157.538c0.166-0.003 0.361-0.004 0.557-0.004 21.754 0 39.389 17.635 39.389 39.389s-17.635 39.389-39.389 39.389c-0.196 0-0.391-0.001-0.586-0.004h-157.509c-0.551 0.028-1.197 0.043-1.846 0.043s-1.295-0.016-1.937-0.047l0.090 0.003c-0.551 0.028-1.197 0.043-1.846 0.043s-1.295-0.016-1.937-0.047l0.091 0.003c-0.551 0.027-1.197 0.043-1.846 0.043s-1.295-0.016-1.937-0.047l0.091 0.003z" />
</font>
</defs>
</svg>
